<svg width="32" height="32" viewBox="0 0 32 32" fill="none" xmlns="http://www.w3.org/2000/svg">
<g opacity="0.5">
<path fill-rule="evenodd" clip-rule="evenodd" d="M2 16.0007C2 15.7355 2.10536 15.4811 2.29289 15.2936C2.48043 15.106 2.73478 15.0007 3 15.0007L26.586 15.0007L20.292 8.70869C20.1042 8.52092 19.9987 8.26624 19.9987 8.00069C19.9987 7.73514 20.1042 7.48046 20.292 7.29269C20.4798 7.10492 20.7344 6.99943 21 6.99943C21.2656 6.99943 21.5202 7.10492 21.708 7.29269L29.708 15.2927C29.8011 15.3856 29.875 15.4959 29.9254 15.6174C29.9758 15.7389 30.0018 15.8692 30.0018 16.0007C30.0018 16.1322 29.9758 16.2625 29.9254 16.384C29.875 16.5054 29.8011 16.6158 29.708 16.7087L21.708 24.7087C21.5202 24.8965 21.2656 25.002 21 25.002C20.7344 25.002 20.4798 24.8965 20.292 24.7087C20.1042 24.5209 19.9987 24.2662 19.9987 24.0007C19.9987 23.7351 20.1042 23.4805 20.292 23.2927L26.586 17.0007H3C2.73478 17.0007 2.48043 16.8953 2.29289 16.7078C2.10536 16.5203 2 16.2659 2 16.0007V16.0007Z" fill="#FBFDFE"/>
</g>
</svg>
