<svg width="56" height="56" viewBox="0 0 56 56" fill="none" xmlns="http://www.w3.org/2000/svg">
<path d="M28 11.5171C34.1932 11.5171 39.2446 6.62877 39.5064 0.5H55.4955C55.2288 15.4571 43.0208 27.5 28 27.5C12.9792 27.5 0.771138 15.4571 0.504454 0.5H16.4935C16.7553 6.62877 21.8068 11.5171 28 11.5171Z" stroke="#FBFDFE"/>
<path d="M28 44.4829C21.8068 44.4829 16.7554 49.3712 16.4936 55.5L0.504509 55.5C0.771193 40.5429 12.9792 28.5 28 28.5C43.0208 28.5 55.2289 40.5429 55.4955 55.5L39.5065 55.5C39.2447 49.3712 34.1932 44.4829 28 44.4829Z" stroke="#FBFDFE"/>
</svg>
