<svg width="152" height="36" viewBox="0 0 152 36" fill="none" xmlns="http://www.w3.org/2000/svg">
<path d="M29.6477 25.9336C23.534 31.0636 14.4192 30.2662 9.28917 24.1525C4.15916 18.0388 4.95661 8.92395 11.0703 3.79395L16.7042 10.5081C14.2986 12.5266 13.9849 16.113 16.0034 18.5186C18.0219 20.9241 21.6083 21.2379 24.0138 19.2194L29.6477 25.9336Z" fill="#FBFDFE"/>
<path d="M18.7859 9.28854C24.8996 4.15853 34.0144 4.95598 39.1444 11.0697C44.2744 17.1834 43.477 26.2982 37.3633 31.4282L31.7294 24.714C34.135 22.6955 34.4487 19.1091 32.4302 16.7036C30.4117 14.298 26.8253 13.9842 24.4198 16.0027L18.7859 9.28854Z" fill="#A1D0D9"/>
<path d="M63.0887 27.2729C60.9573 27.2729 59.167 26.5624 57.7176 25.1131C56.2967 23.6637 55.5862 21.9018 55.5862 19.7704C55.5862 17.639 56.2967 15.877 57.7176 14.4277C59.167 12.9784 60.9573 12.2679 63.0887 12.2679C65.8453 12.2679 68.2893 13.6888 69.4545 15.9339L66.3 17.7811C65.7316 16.6159 64.5097 15.877 63.0603 15.877C60.8721 15.877 59.2522 17.4969 59.2522 19.7704C59.2522 20.8787 59.6217 21.8165 60.3321 22.5554C61.0426 23.2659 61.952 23.6353 63.0603 23.6353C64.5381 23.6353 65.7601 22.9248 66.3284 21.7597L69.5113 23.5785C68.2609 25.8235 65.8453 27.2729 63.0887 27.2729ZM72.9848 10.9606C71.7628 10.9606 70.7397 9.93758 70.7397 8.71558C70.7397 7.49359 71.7628 6.4421 72.9848 6.4421C74.2352 6.4421 75.2583 7.49359 75.2583 8.71558C75.2583 9.93758 74.2352 10.9606 72.9848 10.9606ZM74.832 26.875H71.166V12.6658H74.832V26.875ZM81.5692 12.6658V15.1097C82.2512 13.291 83.9563 12.3816 85.8888 12.3816V16.4738C84.7805 16.3317 83.7574 16.5591 82.8764 17.1559C81.9955 17.7527 81.5692 18.7189 81.5692 20.083V26.875H77.9032V12.6658H81.5692ZM93.985 27.2729C91.8536 27.2729 90.0632 26.5624 88.6139 25.1131C87.1929 23.6637 86.4825 21.9018 86.4825 19.7704C86.4825 17.639 87.1929 15.877 88.6139 14.4277C90.0632 12.9784 91.8536 12.2679 93.985 12.2679C96.7416 12.2679 99.1855 13.6888 100.351 15.9339L97.1962 17.7811C96.6279 16.6159 95.4059 15.877 93.9565 15.877C91.7683 15.877 90.1485 17.4969 90.1485 19.7704C90.1485 20.8787 90.5179 21.8165 91.2284 22.5554C91.9388 23.2659 92.8482 23.6353 93.9565 23.6353C95.4343 23.6353 96.6563 22.9248 97.2247 21.7597L100.408 23.5785C99.1571 25.8235 96.7416 27.2729 93.985 27.2729ZM111.551 20.3387V12.6658H115.217V26.875H111.551V25.2836C110.67 26.6192 109.249 27.2729 107.317 27.2729C105.754 27.2729 104.475 26.7613 103.452 25.7098C102.457 24.6584 101.946 23.2374 101.946 21.3902V12.6658H105.612V20.9355C105.612 22.8396 106.72 23.8626 108.425 23.8626C110.329 23.8626 111.551 22.6975 111.551 20.3387ZM121.957 26.875H118.291V6.1295H121.957V26.875ZM135.827 14.3424V12.6658H139.493V26.875H135.827V25.1983C134.719 26.5908 133.184 27.2729 131.195 27.2729C129.291 27.2729 127.671 26.5624 126.307 25.1131C124.971 23.6637 124.289 21.8733 124.289 19.7704C124.289 17.6674 124.971 15.9055 126.307 14.4561C127.671 13.0068 129.291 12.2679 131.195 12.2679C133.184 12.2679 134.719 12.9499 135.827 14.3424ZM129.063 22.6691C129.802 23.4079 130.74 23.7774 131.877 23.7774C133.014 23.7774 133.951 23.4079 134.69 22.6691C135.458 21.9018 135.827 20.9355 135.827 19.7704C135.827 18.6052 135.458 17.639 134.69 16.9001C133.951 16.1328 133.014 15.7634 131.877 15.7634C130.74 15.7634 129.802 16.1328 129.063 16.9001C128.324 17.639 127.955 18.6052 127.955 19.7704C127.955 20.9355 128.324 21.9018 129.063 22.6691ZM146.199 12.6658V15.1097C146.881 13.291 148.586 12.3816 150.519 12.3816V16.4738C149.41 16.3317 148.387 16.5591 147.506 17.1559C146.625 17.7527 146.199 18.7189 146.199 20.083V26.875H142.533V12.6658H146.199Z" fill="#FBFDFE"/>
<path fill-rule="evenodd" clip-rule="evenodd" d="M70.3828 5.34766V11.1629H75.396V5.34766H70.3828ZM74.6571 9.3854C74.7478 9.15427 74.7944 8.90655 74.7944 8.65639H72.9897H71.185C71.185 8.90655 71.2317 9.15427 71.3223 9.3854C71.413 9.61652 71.546 9.82653 71.7136 10.0034C71.8811 10.1803 72.0801 10.3206 72.2991 10.4164C72.518 10.5121 72.7527 10.5614 72.9897 10.5614C73.2267 10.5614 73.4614 10.5121 73.6803 10.4164C73.8993 10.3206 74.0983 10.1803 74.2658 10.0034C74.4334 9.82653 74.5664 9.61652 74.6571 9.3854Z" fill="#141414"/>
</svg>
