<svg width="97" height="99" viewBox="0 0 97 99" fill="none" xmlns="http://www.w3.org/2000/svg">
<path opacity="0.3" d="M0.757655 15.3017L20.2819 88.9685C20.4332 89.5318 20.7795 90.0251 21.2709 90.359L32.4219 97.9374C33.3543 98.571 34.5705 97.703 34.2759 96.6187L16.1827 28.3267L89.9177 78.4381C90.4721 78.8148 91.234 78.6695 91.6108 78.1151L96.7486 70.5551C97.1254 70.0007 96.9801 69.2389 96.4257 68.8621L22.7033 18.7593L92.8602 10.4434C93.9854 10.3056 94.3363 8.86782 93.4039 8.23415L81.8749 0.398899C81.6355 0.2362 81.3362 0.161703 81.0484 0.205619L4.9022 9.20335C4.20823 9.28622 3.5401 9.51701 2.94294 9.88015C2.34579 10.2433 1.83349 10.7303 1.44064 11.3084C1.04779 11.8864 0.783535 12.542 0.665712 13.2309C0.547889 13.9198 0.579243 14.626 0.757655 15.3017Z" fill="#6D6D6D"/>
</svg>
