<svg width="119" height="118" viewBox="0 0 119 118" fill="none" xmlns="http://www.w3.org/2000/svg">
<path d="M6.11701 116.381L103.232 118C103.976 118.01 104.701 117.756 105.281 117.27L118.444 106.23C119.545 105.307 118.902 103.515 117.47 103.5L27.4426 101.991L114.483 28.992C115.137 28.4431 115.223 27.4588 114.674 26.8047L107.186 17.885C106.637 17.2308 105.652 17.1447 104.998 17.6936L17.9724 90.6806L32.1192 1.80222C32.3406 0.375208 30.6992 -0.553496 29.5985 0.369601L15.9892 11.7836C15.7066 12.0206 15.5114 12.3617 15.4654 12.7296L0.0764979 109.186C-0.0626979 110.065 -0.0115106 110.964 0.226603 111.822C0.464718 112.68 0.884217 113.477 1.45678 114.159C2.02934 114.841 2.74163 115.392 3.54558 115.776C4.34952 116.159 5.2264 116.365 6.11701 116.381Z" fill="#FBFDFE"/>
</svg>
