<svg width="1968" height="1742" viewBox="0 0 1968 1742" fill="none" xmlns="http://www.w3.org/2000/svg">
<path d="M452.195 525.157C509.522 593.477 611.176 602.658 679.799 545.934L837.756 734.18C665.167 878.139 408.515 855.396 263.952 683.112C119.388 510.829 141.558 254.126 313.3 109.157L471.257 297.403C403.478 355.134 394.868 456.838 452.195 525.157Z" stroke="#FBFDFE" stroke-opacity="0.15" stroke-width="2.44517"/>
<path d="M1048.39 1268.98C1105.71 1337.29 1207.37 1346.48 1275.99 1289.75L1433.95 1478C1261.36 1621.96 1004.71 1599.21 860.143 1426.93C715.58 1254.65 737.75 997.945 909.491 852.976L1067.45 1041.22C999.67 1098.95 991.06 1200.66 1048.39 1268.98Z" stroke="#FBFDFE" stroke-opacity="0.15" stroke-width="2.44517"/>
<path d="M919.223 472.191C861.896 403.871 760.242 394.689 691.619 451.413L533.662 263.167C706.251 119.209 962.903 141.952 1107.47 314.235C1252.03 486.519 1229.86 743.221 1058.12 888.19L900.161 699.945C967.94 642.214 976.55 540.51 919.223 472.191Z" stroke="#FBFDFE" stroke-opacity="0.15" stroke-width="2.44517"/>
<path d="M1515.41 1216.01C1458.08 1147.69 1356.43 1138.51 1287.81 1195.23L1129.85 1006.99C1302.44 863.028 1559.09 885.771 1703.65 1058.05C1848.22 1230.34 1826.05 1487.04 1654.31 1632.01L1496.35 1443.76C1564.13 1386.03 1572.74 1284.33 1515.41 1216.01Z" stroke="#FBFDFE" stroke-opacity="0.15" stroke-width="2.44517"/>
</svg>
