<svg width="56" height="56" viewBox="0 0 56 56" fill="none" xmlns="http://www.w3.org/2000/svg">
<path d="M11.5171 28C11.5171 21.8068 6.62877 16.7554 0.5 16.4936L0.5 0.504509C15.4571 0.771194 27.5 12.9792 27.5 28C27.5 43.0208 15.4571 55.2289 0.5 55.4955L0.5 39.5065C6.62877 39.2447 11.5171 34.1932 11.5171 28Z" stroke="#FBFDFE"/>
<path d="M44.4829 28C44.4829 34.1932 49.3712 39.2446 55.5 39.5064L55.5 55.4955C40.5429 55.2288 28.5 43.0208 28.5 28C28.5 12.9792 40.5429 0.77114 55.5 0.504454L55.5 16.4935C49.3712 16.7553 44.4829 21.8068 44.4829 28Z" stroke="#FBFDFE"/>
</svg>
