<svg width="40" height="40" viewBox="0 0 40 40" fill="none" xmlns="http://www.w3.org/2000/svg">
<path d="M0 22.9613V17.1298H7.45455L13.8182 18.1321L14.2727 17.0387L9.09091 13.2118L3.81818 7.92711L7.90909 3.82688L13.1818 9.0205L17 14.3052L18.0909 13.8497L17.0909 7.38041V0H22.9091V7.38041L21.9091 13.8497L23 14.3052L26.8182 9.0205L32.0909 3.82688L36.1818 7.92711L31 13.2118L25.7273 17.0387L26.1818 18.1321L32.5455 17.1298H40V22.9613H32.5455L26.1818 21.959L25.7273 23.0524L31 26.8793L36.1818 32.164L32.0909 36.2642L26.8182 30.9795L23 25.6948L21.9091 26.1503L22.9091 32.6196V40H17.0909V32.6196L18.0909 26.1503L17 25.6948L13.1818 30.9795L7.90909 36.2642L3.81818 32.164L9.09091 26.8793L14.2727 23.0524L13.8182 21.959L7.45455 22.9613H0Z" fill="#F4F3EE"/>
</svg>
