<svg width="319" height="182" viewBox="0 0 319 182" fill="none" xmlns="http://www.w3.org/2000/svg">
<rect width="319" height="182" rx="80" fill="#EF4824"/>
<rect x="11.5" y="11.5" width="296" height="159" rx="70.5" stroke="#F4F3EE" stroke-width="3"/>
<path d="M235 60.9613V55.1298H242.455L248.818 56.1321L249.273 55.0387L244.091 51.2118L238.818 45.9271L242.909 41.8269L248.182 47.0205L252 52.3052L253.091 51.8497L252.091 45.3804V38H257.909V45.3804L256.909 51.8497L258 52.3052L261.818 47.0205L267.091 41.8269L271.182 45.9271L266 51.2118L260.727 55.0387L261.182 56.1321L267.545 55.1298H275V60.9613H267.545L261.182 59.959L260.727 61.0524L266 64.8793L271.182 70.164L267.091 74.2642L261.818 68.9795L258 63.6948L256.909 64.1503L257.909 70.6196V78H252.091V70.6196L253.091 64.1503L252 63.6948L248.182 68.9795L242.909 74.2642L238.818 70.164L244.091 64.8793L249.273 61.0524L248.818 59.959L242.455 60.9613H235Z" fill="#F4F3EE"/>
<path d="M48.924 81.3C48.924 78.752 49.288 76.54 50.016 74.664C50.744 72.76 51.752 71.192 53.04 69.96C54.328 68.7 55.854 67.776 57.618 67.188C59.382 66.572 61.286 66.278 63.33 66.306C65.038 66.334 66.648 66.558 68.16 66.978C69.672 67.398 71.03 68.042 72.234 68.91C73.466 69.75 74.516 70.814 75.384 72.102C76.252 73.39 76.896 74.902 77.316 76.638L73.536 77.814C73.2 76.61 72.668 75.532 71.94 74.58C71.212 73.628 70.372 72.83 69.42 72.186C68.496 71.542 67.502 71.052 66.438 70.716C65.374 70.352 64.338 70.17 63.33 70.17C62.014 70.17 60.726 70.408 59.466 70.884C58.234 71.36 57.142 72.074 56.19 73.026C55.238 73.95 54.468 75.112 53.88 76.512C53.32 77.884 53.04 79.48 53.04 81.3C53.04 83.064 53.292 84.646 53.796 86.046C54.328 87.418 55.028 88.58 55.896 89.532C56.792 90.484 57.842 91.212 59.046 91.716C60.25 92.192 61.538 92.43 62.91 92.43C64.086 92.43 65.108 92.136 65.976 91.548C66.872 90.96 67.614 90.246 68.202 89.406C68.818 88.538 69.28 87.628 69.588 86.676C69.924 85.696 70.12 84.814 70.176 84.03H65.808V80.712H74.88C75.888 80.712 76.616 80.978 77.064 81.51C77.512 82.014 77.736 82.714 77.736 83.61V96H73.704V84.03L72.78 84.072C72.724 86.228 72.43 88.076 71.898 89.616C71.366 91.156 70.638 92.43 69.714 93.438C68.818 94.418 67.754 95.146 66.522 95.622C65.318 96.07 63.988 96.294 62.532 96.294C60.488 96.294 58.626 95.986 56.946 95.37C55.294 94.754 53.866 93.83 52.662 92.598C51.486 91.366 50.562 89.812 49.89 87.936C49.246 86.06 48.924 83.848 48.924 81.3ZM91.1117 96.252C89.5717 96.252 88.1017 96.042 86.7017 95.622C85.3017 95.174 84.0697 94.502 83.0057 93.606C81.9697 92.71 81.1437 91.59 80.5277 90.246C79.9117 88.902 79.6037 87.32 79.6037 85.5C79.6037 83.68 79.9117 82.098 80.5277 80.754C81.1437 79.41 81.9697 78.29 83.0057 77.394C84.0697 76.498 85.3017 75.84 86.7017 75.42C88.1017 74.972 89.5717 74.748 91.1117 74.748C92.6517 74.748 94.0937 74.972 95.4377 75.42C96.8097 75.868 97.9997 76.54 99.0077 77.436C100.016 78.304 100.814 79.41 101.402 80.754C101.99 82.098 102.284 83.68 102.284 85.5C102.284 85.808 102.284 86.018 102.284 86.13C102.284 86.214 102.256 86.396 102.2 86.676H83.8877C84.1957 88.776 85.0077 90.344 86.3237 91.38C87.6397 92.416 89.2637 92.92 91.1957 92.892C92.8197 92.864 94.2337 92.556 95.4377 91.968C96.6697 91.38 97.5797 90.302 98.1677 88.734L101.948 89.238C101.556 90.498 100.996 91.576 100.268 92.472C99.5677 93.368 98.7417 94.096 97.7897 94.656C96.8377 95.188 95.7877 95.594 94.6397 95.874C93.5197 96.126 92.3437 96.252 91.1117 96.252ZM91.1957 77.982C90.2717 77.982 89.3477 78.164 88.4237 78.528C87.4997 78.864 86.6877 79.396 85.9877 80.124C85.2877 80.824 84.7277 81.72 84.3077 82.812C83.9157 83.904 83.7757 85.192 83.8877 86.676C84.0557 86.116 84.2377 85.668 84.4337 85.332C84.6577 84.996 84.9097 84.744 85.1897 84.576C85.4977 84.408 85.8337 84.296 86.1977 84.24C86.5897 84.184 87.0377 84.156 87.5417 84.156H98.3777C98.0697 82 97.2717 80.446 95.9837 79.494C94.7237 78.514 93.1277 78.01 91.1957 77.982ZM102.848 78.696V74.832H103.646C104.122 74.832 104.612 74.636 105.116 74.244C105.648 73.852 106.124 73.348 106.544 72.732C106.964 72.116 107.314 71.43 107.594 70.674C107.874 69.918 108.014 69.176 108.014 68.448L112.172 68.406C112.116 69.582 111.836 70.702 111.332 71.766C110.828 72.802 110.086 73.642 109.106 74.286C108.742 74.51 108.294 74.678 107.762 74.79C107.258 74.874 106.796 74.958 106.376 75.042V75.126C106.796 75.042 107.258 74.972 107.762 74.916C108.294 74.86 108.77 74.832 109.19 74.832H116.624V78.696H111.29V89.868C111.29 90.792 111.514 91.408 111.962 91.716C112.41 91.996 112.956 92.136 113.6 92.136H117.632V96H113.81C112.438 96 111.318 95.874 110.45 95.622C109.582 95.342 108.91 94.922 108.434 94.362C107.958 93.802 107.622 93.088 107.426 92.22C107.258 91.324 107.174 90.274 107.174 89.07V78.696H102.848ZM53.04 129.012C53.18 130.692 53.95 131.994 55.35 132.918C56.778 133.842 58.682 134.318 61.062 134.346C63.722 134.346 65.78 133.884 67.236 132.96C68.72 132.036 69.462 130.678 69.462 128.886C69.462 128.018 69.168 127.332 68.58 126.828C68.02 126.324 67.264 125.918 66.312 125.61C65.388 125.274 64.324 125.022 63.12 124.854C61.944 124.658 60.726 124.462 59.466 124.266C58.234 124.042 57.016 123.79 55.812 123.51C54.636 123.202 53.572 122.782 52.62 122.25C51.696 121.718 50.94 121.032 50.352 120.192C49.792 119.324 49.512 118.246 49.512 116.958C49.512 115.474 49.806 114.186 50.394 113.094C51.01 111.974 51.85 111.05 52.914 110.322C53.978 109.594 55.224 109.048 56.652 108.684C58.08 108.32 59.606 108.152 61.23 108.18C62.742 108.208 64.142 108.39 65.43 108.726C66.746 109.062 67.894 109.566 68.874 110.238C69.882 110.882 70.694 111.694 71.31 112.674C71.926 113.654 72.29 114.802 72.402 116.118L68.454 116.664C68.314 115.208 67.684 114.074 66.564 113.262C65.444 112.45 63.666 112.044 61.23 112.044C58.822 112.044 56.946 112.478 55.602 113.346C54.286 114.186 53.628 115.39 53.628 116.958C53.628 117.742 53.908 118.358 54.468 118.806C55.056 119.226 55.812 119.576 56.736 119.856C57.688 120.108 58.752 120.318 59.928 120.486C61.132 120.654 62.35 120.836 63.582 121.032C64.842 121.228 66.06 121.48 67.236 121.788C68.44 122.096 69.504 122.544 70.428 123.132C71.38 123.692 72.136 124.42 72.696 125.316C73.284 126.212 73.578 127.36 73.578 128.76C73.578 129.768 73.396 130.832 73.032 131.952C72.696 133.044 72.052 134.066 71.1 135.018C70.176 135.942 68.902 136.712 67.278 137.328C65.682 137.916 63.624 138.21 61.104 138.21C58.78 138.21 56.862 137.958 55.35 137.454C53.838 136.95 52.62 136.292 51.696 135.48C50.8 134.64 50.156 133.702 49.764 132.666C49.372 131.63 49.134 130.58 49.05 129.516L53.04 129.012ZM74.2188 120.696V116.832H75.0168C75.4928 116.832 75.9828 116.636 76.4868 116.244C77.0188 115.852 77.4948 115.348 77.9148 114.732C78.3348 114.116 78.6848 113.43 78.9648 112.674C79.2448 111.918 79.3848 111.176 79.3848 110.448L83.5428 110.406C83.4868 111.582 83.2068 112.702 82.7028 113.766C82.1988 114.802 81.4568 115.642 80.4768 116.286C80.1128 116.51 79.6648 116.678 79.1328 116.79C78.6288 116.874 78.1668 116.958 77.7468 117.042V117.126C78.1668 117.042 78.6288 116.972 79.1328 116.916C79.6648 116.86 80.1408 116.832 80.5608 116.832H87.9948V120.696H82.6608V131.868C82.6608 132.792 82.8848 133.408 83.3328 133.716C83.7808 133.996 84.3268 134.136 84.9708 134.136H89.0028V138H85.1808C83.8088 138 82.6888 137.874 81.8208 137.622C80.9528 137.342 80.2808 136.922 79.8048 136.362C79.3288 135.802 78.9928 135.088 78.7968 134.22C78.6288 133.324 78.5448 132.274 78.5448 131.07V120.696H74.2188ZM105.876 132.834C105.596 133.702 105.162 134.458 104.574 135.102C103.986 135.746 103.3 136.278 102.516 136.698C101.76 137.118 100.934 137.44 100.038 137.664C99.1423 137.86 98.2463 137.958 97.3503 137.958C96.3143 137.958 95.3063 137.832 94.3263 137.58C93.3463 137.328 92.4783 136.95 91.7223 136.446C90.9663 135.942 90.3503 135.326 89.8743 134.598C89.4263 133.842 89.2023 132.988 89.2023 132.036C89.2023 130.496 89.6083 129.334 90.4203 128.55C91.2603 127.738 92.2963 127.15 93.5283 126.786C94.7883 126.422 96.1323 126.226 97.5603 126.198C99.0163 126.142 100.36 126.1 101.592 126.072C102.852 126.016 103.888 125.904 104.7 125.736C105.512 125.568 105.904 125.19 105.876 124.602C105.82 123.006 105.274 121.872 104.238 121.2C103.23 120.528 101.718 120.192 99.7023 120.192C98.8903 120.192 98.1203 120.248 97.3923 120.36C96.6923 120.472 96.0623 120.682 95.5023 120.99C94.9703 121.298 94.5223 121.718 94.1583 122.25C93.7943 122.782 93.5563 123.468 93.4443 124.308L89.8323 123.804C89.9723 122.544 90.3503 121.466 90.9663 120.57C91.5823 119.674 92.3523 118.96 93.2763 118.428C94.2003 117.868 95.2223 117.476 96.3423 117.252C97.4623 117 98.5823 116.874 99.7023 116.874C100.962 116.874 102.194 117.014 103.398 117.294C104.63 117.574 105.722 118.036 106.674 118.68C107.626 119.296 108.382 120.136 108.942 121.2C109.53 122.236 109.824 123.538 109.824 125.106V132.75C109.824 133.31 109.922 133.674 110.118 133.842C110.314 134.01 110.636 134.094 111.084 134.094H112.05V138H109.362C108.298 138 107.444 137.678 106.8 137.034C106.184 136.39 105.876 135.606 105.876 134.682V132.834ZM93.2343 131.952C93.2343 132.512 93.3743 133.002 93.6543 133.422C93.9343 133.814 94.2983 134.15 94.7463 134.43C95.2223 134.682 95.7683 134.878 96.3843 135.018C97.0283 135.13 97.6863 135.186 98.3583 135.186C99.2263 135.186 100.108 135.088 101.004 134.892C101.9 134.668 102.698 134.36 103.398 133.968C104.126 133.576 104.714 133.1 105.162 132.54C105.638 131.952 105.876 131.294 105.876 130.566V127.794C105.288 128.13 104.56 128.354 103.692 128.466C102.824 128.578 101.914 128.648 100.962 128.676C100.038 128.704 99.1143 128.732 98.1903 128.76C97.2663 128.788 96.4403 128.9 95.7123 129.096C94.9843 129.292 94.3823 129.614 93.9063 130.062C93.4583 130.482 93.2343 131.112 93.2343 131.952ZM114.393 122.628C114.393 120.724 114.841 119.31 115.737 118.386C116.633 117.462 118.047 117 119.979 117H128.421V120.864L121.323 120.906C120.735 120.906 120.259 120.934 119.895 120.99C119.531 121.046 119.237 121.186 119.013 121.41C118.817 121.606 118.677 121.914 118.593 122.334C118.537 122.754 118.509 123.328 118.509 124.056V138H114.393V122.628ZM129.795 120.696V116.832H130.593C131.069 116.832 131.559 116.636 132.063 116.244C132.595 115.852 133.071 115.348 133.491 114.732C133.911 114.116 134.261 113.43 134.541 112.674C134.821 111.918 134.961 111.176 134.961 110.448L139.119 110.406C139.063 111.582 138.783 112.702 138.279 113.766C137.775 114.802 137.033 115.642 136.053 116.286C135.689 116.51 135.241 116.678 134.709 116.79C134.205 116.874 133.743 116.958 133.323 117.042V117.126C133.743 117.042 134.205 116.972 134.709 116.916C135.241 116.86 135.717 116.832 136.137 116.832H143.571V120.696H138.237V131.868C138.237 132.792 138.461 133.408 138.909 133.716C139.357 133.996 139.903 134.136 140.547 134.136H144.579V138H140.757C139.385 138 138.265 137.874 137.397 137.622C136.529 137.342 135.857 136.922 135.381 136.362C134.905 135.802 134.569 135.088 134.373 134.22C134.205 133.324 134.121 132.274 134.121 131.07V120.696H129.795ZM156.245 138.252C154.705 138.252 153.235 138.042 151.835 137.622C150.435 137.174 149.203 136.502 148.139 135.606C147.103 134.71 146.277 133.59 145.661 132.246C145.045 130.902 144.737 129.32 144.737 127.5C144.737 125.68 145.045 124.098 145.661 122.754C146.277 121.41 147.103 120.29 148.139 119.394C149.203 118.498 150.435 117.84 151.835 117.42C153.235 116.972 154.705 116.748 156.245 116.748C157.785 116.748 159.227 116.972 160.571 117.42C161.943 117.868 163.133 118.54 164.141 119.436C165.149 120.304 165.947 121.41 166.535 122.754C167.123 124.098 167.417 125.68 167.417 127.5C167.417 127.808 167.417 128.018 167.417 128.13C167.417 128.214 167.389 128.396 167.333 128.676H149.021C149.329 130.776 150.141 132.344 151.457 133.38C152.773 134.416 154.397 134.92 156.329 134.892C157.953 134.864 159.367 134.556 160.571 133.968C161.803 133.38 162.713 132.302 163.301 130.734L167.081 131.238C166.689 132.498 166.129 133.576 165.4 134.472C164.701 135.368 163.875 136.096 162.923 136.656C161.971 137.188 160.921 137.594 159.773 137.874C158.653 138.126 157.477 138.252 156.245 138.252ZM156.329 119.982C155.405 119.982 154.481 120.164 153.557 120.528C152.633 120.864 151.821 121.396 151.121 122.124C150.421 122.824 149.861 123.72 149.441 124.812C149.049 125.904 148.909 127.192 149.021 128.676C149.189 128.116 149.371 127.668 149.567 127.332C149.791 126.996 150.043 126.744 150.323 126.576C150.631 126.408 150.967 126.296 151.331 126.24C151.723 126.184 152.171 126.156 152.675 126.156H163.511C163.203 124 162.405 122.446 161.117 121.494C159.857 120.514 158.261 120.01 156.329 119.982ZM169.225 127.5C169.225 123.86 170.107 121.172 171.871 119.436C173.635 117.672 176.085 116.776 179.221 116.748C179.921 116.748 180.649 116.832 181.405 117C182.161 117.14 182.903 117.364 183.631 117.672C184.359 117.952 185.045 118.302 185.689 118.722C186.361 119.114 186.935 119.562 187.411 120.066C187.747 120.402 188.027 120.836 188.251 121.368C188.503 121.9 188.699 122.39 188.839 122.838H188.923C188.783 122.362 188.657 121.844 188.545 121.284C188.433 120.724 188.377 120.206 188.377 119.73V108.6H192.493V138H188.377V135.438C188.377 134.962 188.433 134.444 188.545 133.884C188.657 133.324 188.783 132.82 188.923 132.372L188.839 132.33C188.699 132.778 188.503 133.268 188.251 133.8C188.027 134.332 187.747 134.766 187.411 135.102C186.907 135.606 186.333 136.054 185.689 136.446C185.045 136.81 184.359 137.132 183.631 137.412C182.903 137.692 182.161 137.902 181.405 138.042C180.649 138.182 179.921 138.252 179.221 138.252C176.085 138.252 173.635 137.37 171.871 135.606C170.107 133.842 169.225 131.14 169.225 127.5ZM180.565 120.15C177.989 120.178 176.141 120.794 175.021 121.998C173.901 123.174 173.341 125.008 173.341 127.5C173.341 129.992 173.901 131.826 175.021 133.002C176.169 134.15 178.017 134.724 180.565 134.724C181.489 134.724 182.413 134.57 183.337 134.262C184.289 133.926 185.129 133.45 185.857 132.834C186.613 132.19 187.215 131.42 187.663 130.524C188.139 129.628 188.377 128.62 188.377 127.5C188.377 126.352 188.139 125.33 187.663 124.434C187.215 123.51 186.613 122.74 185.857 122.124C185.129 121.48 184.289 120.99 183.337 120.654C182.413 120.318 181.489 120.15 180.565 120.15ZM195.997 121.83V108.6H200.113V121.83L198.475 130.482H197.635L195.997 121.83ZM200.533 138.336V134.094H195.619V138.336H200.533Z" fill="white"/>
</svg>
