<svg width="132" height="40" viewBox="0 0 132 40" fill="none" xmlns="http://www.w3.org/2000/svg">
<g clip-path="url(#clip0_2614_748)">
<path d="M19.8146 0.065918C8.90389 0.065918 0.0585938 8.99282 0.0585938 20.0045C0.0585938 31.0166 8.90389 39.9428 19.8146 39.9428C30.7265 39.9428 39.5708 31.0166 39.5708 20.0045C39.5708 8.99354 30.7265 0.0668703 19.8144 0.0668703L19.8146 0.065918V0.065918ZM28.8746 28.8231C28.5207 29.4088 27.7611 29.5945 27.1807 29.235C22.5422 26.3754 16.7029 25.7278 9.82607 27.3135C9.1634 27.4659 8.50284 27.0469 8.35186 26.3778C8.20017 25.7088 8.61372 25.0421 9.27805 24.8897C16.8037 23.1545 23.2589 23.9016 28.4665 27.1135C29.0468 27.4731 29.2308 28.2373 28.8746 28.8231V28.8231ZM31.2927 23.394C30.8468 24.1254 29.8984 24.3564 29.1742 23.9064C23.8638 20.6121 15.7689 19.6581 9.48778 21.5823C8.67317 21.8307 7.8128 21.3673 7.56556 20.5466C7.32021 19.7245 7.77953 18.8578 8.59272 18.6078C15.7675 16.4107 24.6871 17.475 30.7855 21.2571C31.5097 21.7071 31.7386 22.6643 31.2927 23.3943V23.394ZM31.5003 17.7407C25.133 13.9238 14.6278 13.5728 8.54861 15.435C7.5724 15.7338 6.54005 15.1776 6.24422 14.1923C5.94838 13.2066 6.499 12.1654 7.47591 11.8659C14.4544 9.72782 26.0554 10.1409 33.3862 14.5331C34.2661 15.059 34.5539 16.2035 34.0326 17.0885C33.5136 17.9747 32.3765 18.2669 31.5012 17.7407H31.5003ZM53.8082 18.4721C50.3969 17.6512 49.7906 17.075 49.7906 15.8643C49.7906 14.7204 50.8569 13.9507 52.4446 13.9507C53.9827 13.9507 55.5067 14.5352 57.1062 15.7385C57.1534 15.775 57.2147 15.7895 57.2737 15.78C57.335 15.7709 57.3869 15.7378 57.4223 15.6881L59.0879 13.3185C59.1563 13.2209 59.1374 13.0864 59.0454 13.0119C57.1416 11.4707 54.9995 10.7214 52.4941 10.7214C48.8115 10.7214 46.2377 12.9521 46.2377 16.1438C46.2377 19.5664 48.4577 20.7783 52.2936 21.7138C55.5563 22.4726 56.1083 23.1083 56.1083 24.2445C56.1083 25.504 54.9948 26.2873 53.2019 26.2873C51.2108 26.2873 49.5853 25.6088 47.7688 24.0231C47.724 23.9826 47.6626 23.9659 47.606 23.9683C47.5447 23.9731 47.4904 24.0016 47.4527 24.0469L45.5843 26.2897C45.5064 26.385 45.5158 26.5231 45.6055 26.604C47.7193 28.5088 50.319 29.5135 53.1264 29.5135C57.0944 29.5135 59.6588 27.3254 59.6588 23.9373C59.6659 21.0785 57.9697 19.4952 53.8152 18.4752L53.8082 18.4721V18.4721ZM68.6376 15.0769C66.9178 15.0769 65.5071 15.7607 64.3416 17.1619V15.5847C64.3416 15.4602 64.2426 15.3588 64.1199 15.3588H61.0648C60.9422 15.3588 60.8431 15.4602 60.8431 15.5847V33.1088C60.8431 33.2326 60.9422 33.335 61.0648 33.335H64.1199C64.2426 33.335 64.3416 33.2326 64.3416 33.1088V27.5778C65.5071 28.8945 66.9178 29.5397 68.6376 29.5397C71.8342 29.5397 75.0709 27.0564 75.0709 22.309C75.0757 17.5607 71.8389 15.0766 68.64 15.0766L68.6376 15.0769ZM71.5181 22.309C71.5181 24.7254 70.0437 26.4135 67.9299 26.4135C65.8421 26.4135 64.2662 24.6493 64.2662 22.309C64.2662 19.9685 65.8421 18.2047 67.9299 18.2047C70.0083 18.2045 71.5181 19.9302 71.5181 22.3088V22.309ZM83.3633 15.0769C79.2466 15.0769 76.0217 18.2759 76.0217 22.3607C76.0217 26.4016 79.2254 29.5659 83.3137 29.5659C87.4445 29.5659 90.6789 26.3778 90.6789 22.309C90.6789 18.254 87.4658 15.0773 83.3633 15.0773V15.0769V15.0769ZM83.3633 26.4373C81.174 26.4373 79.5226 24.6612 79.5226 22.3078C79.5226 19.9438 81.1174 18.2283 83.3137 18.2283C85.5171 18.2283 87.178 20.0038 87.178 22.3595C87.178 24.7231 85.5738 26.4373 83.3633 26.4373V26.4373ZM99.469 15.3588H96.1073V11.8907C96.1073 11.7664 96.0082 11.665 95.8855 11.665H92.8304C92.7078 11.665 92.6063 11.7664 92.6063 11.8907V15.3588H91.1389C91.0163 15.3588 90.9172 15.4602 90.9172 15.5847V18.234C90.9172 18.3583 91.0163 18.46 91.1389 18.46H92.6063V25.3159C92.6063 28.085 93.9722 29.4897 96.6687 29.4897C97.7634 29.4897 98.6716 29.2612 99.528 28.7707C99.5988 28.7326 99.6412 28.6564 99.6412 28.5754V26.0516C99.6412 25.9754 99.6011 25.9016 99.5351 25.8612C99.469 25.8183 99.3864 25.8159 99.318 25.8516C98.7306 26.1493 98.162 26.2873 97.5251 26.2873C96.546 26.2873 96.1073 25.8373 96.1073 24.8326V18.4612H99.469C99.5917 18.4612 99.6908 18.3597 99.6908 18.2352V15.5862C99.6955 15.4616 99.5964 15.3602 99.4714 15.3602L99.469 15.3588V15.3588ZM111.18 15.3723V14.9464C111.18 13.6933 111.656 13.1345 112.723 13.1345C113.36 13.1345 113.871 13.2621 114.445 13.455C114.515 13.4773 114.589 13.4662 114.645 13.4235C114.704 13.3809 114.737 13.3126 114.737 13.2402V10.6426C114.737 10.5433 114.676 10.4554 114.579 10.4262C113.975 10.2445 113.201 10.0581 112.041 10.0581C109.222 10.0581 107.728 11.6614 107.728 14.6931V15.3454H106.261C106.138 15.3454 106.037 15.4469 106.037 15.5712V18.234C106.037 18.3583 106.138 18.46 106.261 18.46H107.728V29.0326C107.728 29.1588 107.83 29.2588 107.952 29.2588H111.005C111.13 29.2588 111.229 29.1588 111.229 29.0326V18.4607H114.081L118.451 29.0326C117.955 30.1421 117.467 30.3635 116.801 30.3635C116.264 30.3635 115.695 30.2016 115.117 29.8802C115.063 29.8516 114.997 29.8469 114.94 29.8635C114.881 29.885 114.832 29.9278 114.808 29.985L113.772 32.2778C113.723 32.3874 113.765 32.5135 113.869 32.5707C114.95 33.1612 115.924 33.4135 117.129 33.4135C119.385 33.4135 120.633 32.3516 121.73 29.4993L127.028 15.6809C127.057 15.6114 127.047 15.5328 127.005 15.4712C126.965 15.41 126.896 15.3731 126.823 15.3731H123.643C123.546 15.3731 123.461 15.4343 123.431 15.5245L120.173 24.9135L116.606 15.5183C116.573 15.4309 116.49 15.3731 116.398 15.3731H111.18V15.3723V15.3723ZM104.39 15.3588H101.335C101.212 15.3588 101.111 15.4602 101.111 15.5847V29.0326C101.111 29.1588 101.212 29.2588 101.335 29.2588H104.39C104.513 29.2588 104.614 29.1588 104.614 29.0326V15.5857C104.614 15.4612 104.515 15.3597 104.39 15.3597V15.3588ZM102.88 9.2352C101.67 9.2352 100.689 10.2238 100.689 11.445C100.689 12.6669 101.67 13.6566 102.88 13.6566C104.091 13.6566 105.07 12.6669 105.07 11.445C105.07 10.224 104.088 9.2352 102.88 9.2352ZM129.637 19.6828C128.43 19.6828 127.488 18.7031 127.488 17.5133C127.488 16.3235 128.441 15.3326 129.649 15.3326C130.857 15.3326 131.798 16.3121 131.798 17.5009C131.798 18.6907 130.845 19.6828 129.637 19.6828ZM129.649 15.5483C128.548 15.5483 127.715 16.4316 127.715 17.5133C127.715 18.5945 128.543 19.4659 129.637 19.4659C130.739 19.4659 131.572 18.5833 131.572 17.5009C131.572 16.4197 130.744 15.5483 129.649 15.5483V15.5483ZM130.126 17.724L130.734 18.5831H130.22L129.673 17.795H129.203V18.5831H128.774V16.3059H129.779C130.305 16.3059 130.65 16.5766 130.65 17.0323C130.652 17.4057 130.437 17.6338 130.128 17.724H130.126ZM129.763 16.6966H129.203V17.4169H129.763C130.041 17.4169 130.208 17.279 130.208 17.0564C130.208 16.8221 130.041 16.6966 129.763 16.6966V16.6966Z" fill="#787878"/>
</g>
<defs>
<clipPath id="clip0_2614_748">
<rect width="131.875" height="40" fill="white"/>
</clipPath>
</defs>
</svg>
