<svg width="154" height="38" viewBox="0 0 154 38" fill="none" xmlns="http://www.w3.org/2000/svg">
<g clip-path="url(#clip0_2614_750)">
<path d="M14.014 20.1133H8.7631L11.5598 11.0228L14.014 20.1133ZM6.03954 30.1314L7.83217 24.1451H14.9065L16.5837 30.116H23.1234L16.626 7.3513C16.2414 6.00611 15.4335 5.38525 14.014 5.38525H4.73931V7.53526H5.50867C6.47808 7.53526 7.00125 7.9185 7.00125 8.6505C7.00125 9.13722 6.89354 9.54346 6.50885 10.651L0 30.1314H6.03954Z" fill="#787878"/>
<path d="M30.6911 30.1314V7.28231C30.6911 6.09042 29.991 5.38525 28.8331 5.38525H23.082V7.53526H23.4667C24.4323 7.53526 24.8439 7.94533 24.8439 8.91877V30.1314H30.6911Z" fill="#787878"/>
<path d="M40.6288 30.1314V7.28231C40.6288 6.09042 39.9172 5.38525 38.7669 5.38525H33.0352V7.53526H33.4198C34.3892 7.53526 34.8009 7.94533 34.8009 8.91877V30.1314H40.6288Z" fill="#787878"/>
<path d="M50.8274 7.64267C50.8274 5.98322 49.5925 4.95996 47.4768 4.95996C45.361 4.95996 44.1185 5.96406 44.1185 7.64267C44.1185 9.32128 45.3918 10.3254 47.4768 10.3254C49.5618 10.3254 50.8274 9.32895 50.8274 7.64267ZM50.7158 30.1315V13.4757C50.7158 12.2876 50.008 11.5863 48.8501 11.5863H43.1914V13.6941H43.5261C44.4916 13.6941 44.9033 14.1387 44.9033 15.1044V30.1315H50.7158Z" fill="#787878"/>
<path d="M63.5193 21.2247V24.8311C62.546 25.8313 61.3612 26.4445 60.3572 26.4445C59.3532 26.4445 58.9416 25.931 58.9416 24.5283C58.9416 23.1256 59.2339 22.5316 60.2803 22.1292C61.3221 21.7066 62.4088 21.4032 63.5193 21.2247M55.6564 16.8941C57.4433 16.0109 59.3985 15.517 61.392 15.4454C62.9615 15.4454 63.5193 16.0011 63.5193 17.6222V18.0361C61.1381 18.4194 60.3918 18.565 59.0493 18.8601C58.2973 19.0251 57.5611 19.2547 56.8489 19.5461C54.4985 20.4851 53.3867 22.294 53.3867 25.0725C53.3867 28.5984 54.9255 30.3 58.076 30.3C59.1477 30.3044 60.2104 30.1054 61.2073 29.7136C62.1116 29.3036 62.9523 28.7667 63.7039 28.1193V28.3799C63.7039 29.5297 64.2964 30.116 65.4543 30.116H70.7821V28.1346H70.5205C69.5165 28.1346 69.1472 27.6862 69.1472 26.502V17.6682C69.1472 12.9582 67.5046 11.3179 62.7692 11.3179C61.2679 11.3253 59.7723 11.5015 58.3107 11.8429C56.9297 12.1497 55.5996 12.6504 54.36 13.3299L55.6564 16.8941Z" fill="#787878"/>
<path d="M79.2627 30.1313V17.5915C80.2359 16.5146 81.2361 16.0279 82.3902 16.0279C83.625 16.0279 83.9289 16.5146 83.9289 18.381V30.1313H89.7376V17.5225C89.7376 14.5869 89.5261 13.6594 88.5836 12.663C87.8142 11.8007 86.6102 11.3638 85.0753 11.3638C82.8018 11.3638 81.2015 12.0651 79.0511 14.0695V13.3298C79.0511 12.1801 78.4472 11.5861 77.2585 11.5861H71.7383V13.6939H72.073C73.0385 13.6939 73.454 14.1385 73.454 15.1042V30.1313H79.2627Z" fill="#787878"/>
<path d="M106.969 26.2377H98.8638L106.615 15.4111V11.5786H94.4592C93.082 11.5786 92.4473 12.2071 92.4473 13.583V16.9555H94.6054V16.6259C94.6054 15.7713 95.0516 15.3651 95.9787 15.3651H100.156L92.3242 26.3144V30.1468H106.942L106.969 26.2377Z" fill="#787878"/>
<path d="M137.464 29.6598V8.69248C137.464 7.02153 136.867 6.45816 135.24 6.45816H130.312V8.81511H130.609C131.732 8.81511 131.951 9.06806 131.951 10.4171V29.6598H137.464ZM139.895 29.6598H145.365V13.3297C145.365 11.6894 144.73 11.0993 143.126 11.0993H139.895V29.6598ZM129.535 29.6598V11.1146H126.292C124.688 11.1146 124.061 11.7048 124.061 13.3451V29.6598H129.535ZM150.543 19.0018C150.543 28.2418 143.873 34.9601 134.713 34.9601C125.554 34.9601 118.868 28.2418 118.868 19.0018C118.868 9.76173 125.55 3.04345 134.713 3.04345C143.876 3.04345 150.543 9.80005 150.543 19.0018ZM153.782 19.0018C153.782 8.13677 145.623 0.000488281 134.713 0.000488281C123.804 0.000488281 115.637 8.13677 115.637 19.0018C115.637 29.8667 123.796 37.9992 134.713 37.9992C145.631 37.9992 153.782 29.8936 153.782 19.0018Z" fill="#787878"/>
</g>
<defs>
<clipPath id="clip0_2614_750">
<rect width="153.781" height="38" fill="white"/>
</clipPath>
</defs>
</svg>
