<svg width="219" height="32" viewBox="0 0 219 32" fill="none" xmlns="http://www.w3.org/2000/svg">
<path d="M0 15.7768V12.2779H4.47273L8.29091 12.8793L8.56364 12.2232L5.45455 9.92711L2.29091 6.75626L4.74545 4.29613L7.90909 7.4123L10.2 10.5831L10.8545 10.3098L10.2545 6.42825V2H13.7455V6.42825L13.1455 10.3098L13.8 10.5831L16.0909 7.4123L19.2545 4.29613L21.7091 6.75626L18.6 9.92711L15.4364 12.2232L15.7091 12.8793L19.5273 12.2779H24V15.7768H19.5273L15.7091 15.1754L15.4364 15.8314L18.6 18.1276L21.7091 21.2984L19.2545 23.7585L16.0909 20.5877L13.8 17.4169L13.1455 17.6902L13.7455 21.5718V26H10.2545V21.5718L10.8545 17.6902L10.2 17.4169L7.90909 20.5877L4.74545 23.7585L2.29091 21.2984L5.45455 18.1276L8.56364 15.8314L8.29091 15.1754L4.47273 15.7768H0Z" fill="#EF4824"/>
<path d="M34.7613 25H33.0333V7.816H34.7613V15.472H44.0493V7.816H45.7533V25H44.0493V17.08H34.7613V25ZM57.7552 13.384H59.4112V25H57.9712L57.7552 23.032C57.1072 24.376 55.4992 25.288 53.6752 25.288C50.9392 25.288 49.4512 23.416 49.4512 20.584V13.36H51.1312V20.056C51.1312 22.816 52.3552 23.8 54.2032 23.8C56.4352 23.8 57.7552 22.312 57.7552 19.552V13.384ZM68.9328 13.24V14.728H68.0208C65.8848 14.728 64.5168 16.168 64.5168 18.376V25H62.8608V13.384H64.4208L64.5408 15.184C64.9968 13.936 66.2208 13.12 67.8528 13.12C68.2128 13.12 68.5248 13.144 68.9328 13.24ZM77.2063 13.24V14.728H76.2943C74.1583 14.728 72.7903 16.168 72.7903 18.376V25H71.1343V13.384H72.6943L72.8143 15.184C73.2703 13.936 74.4943 13.12 76.1263 13.12C76.4863 13.12 76.7983 13.144 77.2063 13.24ZM80.2237 10.192C79.5517 10.192 78.9997 9.64 78.9997 8.968C78.9997 8.296 79.5517 7.72 80.2237 7.72C80.8957 7.72 81.4717 8.296 81.4717 8.968C81.4717 9.64 80.8957 10.192 80.2237 10.192ZM79.4077 25V13.384H81.0637V25H79.4077ZM83.7011 19.216C83.7011 15.568 85.9331 13.072 89.3171 13.072C92.0051 13.072 93.9731 14.632 94.4291 17.032H92.7731C92.3411 15.424 90.9491 14.536 89.3411 14.536C86.9891 14.536 85.3331 16.336 85.3331 19.192C85.3331 21.952 86.8691 23.8 89.2211 23.8C90.9491 23.8 92.3411 22.84 92.7971 21.352H94.4771C93.9251 23.728 91.8611 25.288 89.2211 25.288C85.9331 25.288 83.7011 22.864 83.7011 19.216ZM100.322 25.288C97.8498 25.288 96.3858 23.896 96.3858 21.856C96.3858 19.72 98.0178 18.376 100.73 18.16L104.57 17.848V17.464C104.57 15.184 103.202 14.464 101.498 14.464C99.4818 14.464 98.2818 15.376 98.2818 16.936H96.7698C96.7698 14.584 98.6898 13.072 101.546 13.072C104.234 13.072 106.202 14.416 106.202 17.488V25H104.81L104.594 22.96C103.874 24.424 102.29 25.288 100.322 25.288ZM100.706 23.944C103.154 23.944 104.57 22.24 104.57 19.72V19.096L101.138 19.36C98.9538 19.552 98.0658 20.512 98.0658 21.808C98.0658 23.224 99.1218 23.944 100.706 23.944ZM111.181 25H109.525V13.384H110.965L111.205 15.4C111.973 13.912 113.509 13.072 115.189 13.072C118.381 13.072 119.701 14.968 119.701 17.896V25H118.045V18.256C118.045 15.544 116.821 14.584 114.901 14.584C112.525 14.584 111.181 16.312 111.181 18.928V25ZM127.873 25.288C124.465 25.288 122.185 22.84 122.185 19.192C122.185 15.568 124.441 13.072 127.753 13.072C130.897 13.072 133.033 15.304 133.033 18.592V19.408H123.793C123.913 22.24 125.401 23.872 127.897 23.872C129.793 23.872 131.017 23.056 131.449 21.52H133.033C132.409 23.968 130.609 25.288 127.873 25.288ZM127.753 14.488C125.569 14.488 124.129 15.928 123.841 18.208H131.377C131.377 15.976 129.937 14.488 127.753 14.488Z" fill="#1C1C1C"/>
<path d="M140.96 19.288C140.96 15.64 143.12 13.192 146.432 13.192C148.904 13.192 150.752 14.656 151.28 16.84H150.152C149.672 15.136 148.136 14.176 146.432 14.176C143.864 14.176 142.04 16.144 142.04 19.264C142.04 22.24 143.72 24.28 146.288 24.28C148.136 24.28 149.672 23.224 150.2 21.664H151.328C150.704 23.848 148.736 25.288 146.288 25.288C143.12 25.288 140.96 22.888 140.96 19.288ZM159.484 13.312V14.272H158.62C156.484 14.272 155.092 15.832 155.092 17.992V25H153.988V13.48H155.02L155.116 15.328C155.572 14.032 156.844 13.192 158.476 13.192C158.836 13.192 159.1 13.216 159.484 13.312ZM166.004 25.288C162.668 25.288 160.46 22.888 160.46 19.264C160.46 15.664 162.644 13.192 165.86 13.192C168.86 13.192 170.924 15.352 170.924 18.496V19.264H161.564C161.66 22.408 163.292 24.28 166.004 24.28C168.044 24.28 169.34 23.392 169.796 21.688H170.924C170.252 24.064 168.596 25.288 166.004 25.288ZM165.86 14.2C163.508 14.2 161.852 15.832 161.588 18.352H169.796C169.796 15.856 168.236 14.2 165.86 14.2ZM176.846 25.288C174.374 25.288 172.958 23.92 172.958 21.952C172.958 19.84 174.59 18.496 177.278 18.28L181.238 17.968V17.536C181.238 14.944 179.702 14.2 177.878 14.2C175.742 14.2 174.47 15.208 174.47 16.888H173.366C173.366 14.632 175.19 13.192 177.902 13.192C180.374 13.192 182.342 14.392 182.342 17.368V25H181.454L181.238 22.84C180.446 24.4 178.838 25.288 176.846 25.288ZM176.99 24.304C179.702 24.304 181.238 22.336 181.238 19.504V18.88L177.374 19.192C175.046 19.384 174.062 20.512 174.062 21.928C174.062 23.512 175.262 24.304 176.99 24.304ZM187.693 25H186.589V14.44H184.261V13.48H186.589V9.832H187.693V13.48H190.021V14.44H187.693V25ZM192.884 9.952C192.332 9.952 191.876 9.496 191.876 8.968C191.876 8.416 192.332 7.936 192.884 7.936C193.412 7.936 193.892 8.416 193.892 8.968C193.892 9.496 193.412 9.952 192.884 9.952ZM192.332 25V13.48H193.436V25H192.332ZM200.282 25L195.506 13.48H196.682L200.114 21.856C200.354 22.456 200.594 23.056 200.858 23.872C201.098 23.056 201.338 22.504 201.602 21.856L205.034 13.48H206.186L201.41 25H200.282ZM212.457 25.288C209.121 25.288 206.913 22.888 206.913 19.264C206.913 15.664 209.097 13.192 212.313 13.192C215.313 13.192 217.377 15.352 217.377 18.496V19.264H208.017C208.113 22.408 209.745 24.28 212.457 24.28C214.497 24.28 215.793 23.392 216.249 21.688H217.377C216.705 24.064 215.049 25.288 212.457 25.288ZM212.313 14.2C209.961 14.2 208.305 15.832 208.041 18.352H216.249C216.249 15.856 214.689 14.2 212.313 14.2Z" fill="#727272"/>
</svg>
