<svg width="177" height="32" viewBox="0 0 177 32" fill="none" xmlns="http://www.w3.org/2000/svg">
<g clip-path="url(#clip0_2614_774)">
<path d="M96.2188 29.847H119.042V27.0593H100.131V18.1389H114.335V15.3183H100.131V7.09984H119.042V4.32227H96.2188V29.847Z" fill="#787878"/>
<path d="M108.078 0.196289L104.988 3.66759L114.688 0.196289H108.078Z" fill="#787878"/>
<path d="M157.356 27.0593V4.32227H153.789V29.847H176.861V27.0593H157.356Z" fill="#787878"/>
<path d="M133.83 4.32227L120.852 29.847H125.239L128.559 23.2404H144.125L147.473 29.847H151.815L138.826 4.32227H133.83ZM130.202 20.0411L136.317 7.84928L142.505 20.0411H130.202Z" fill="#787878"/>
<path d="M83.8346 19.1738C89.6822 17.6134 90.2503 13.2625 90.2207 11.707C89.8716 7.14715 86.7994 4.32227 81.2789 4.32227H65.1914V29.847H68.8588V19.1397H79.3322L87.0373 29.847H91.6597C91.6595 29.847 86.1147 22.6409 83.8346 19.1738ZM80.7782 16.1239H68.8588V7.34346H81.1936C84.0335 7.34346 85.631 8.66924 86.2065 10.3534C86.5872 11.5078 86.3431 13.0233 85.7133 14.055C84.6824 15.7608 82.7241 16.1239 80.7782 16.1239Z" fill="#787878"/>
<path d="M43.1506 0C32.7982 0 25.7422 7.29919 25.7422 16.1337C25.7422 25.4343 33.5366 32 43.1506 32C52.7583 32 60.5496 25.5281 60.5496 16.1337C60.5496 7.29919 53.4063 0 43.1506 0ZM43.0264 28.8316C35.8641 28.8316 29.9627 23.0759 29.9627 16.1424C29.9627 9.21834 35.5855 3.187 43.3041 3.187C50.8314 3.187 56.3647 9.21834 56.3647 16.1424C56.3647 23.0757 50.1857 28.8316 43.0264 28.8316Z" fill="#787878"/>
<path d="M16.5078 13.352H19.1541L23.9573 4.32227H20.0921L16.5078 13.352Z" fill="#787878"/>
<path d="M3.56924 27.0593V4.32227H0V29.847H23.071V27.0593H3.56924Z" fill="#787878"/>
</g>
<defs>
<clipPath id="clip0_2614_774">
<rect width="176.859" height="32" fill="white"/>
</clipPath>
</defs>
</svg>
