<svg width="123" height="40" viewBox="0 0 123 40" fill="none" xmlns="http://www.w3.org/2000/svg">
<g clip-path="url(#clip0_2614_759)">
<path d="M46.9104 34.8932C42.3649 31.965 36.196 31.4512 26.2472 34.2114C15.6412 36.7037 12.105 38.3014 7.461 35.0941C5.67687 33.5186 5.03722 30.9818 5.51486 27.3277C6.62269 21.3709 9.6165 15.6385 14.9342 9.27977C17.9025 5.97201 20.6559 3.13334 24.2916 1.99344C27.0781 1.27835 26.8176 3.46821 26.4804 3.78139C26.1246 3.78139 25.527 3.83743 25.065 4.13886C24.6902 4.4296 23.6611 5.36839 23.6058 6.63121C23.5261 8.56438 25.5268 8.16201 26.3897 7.1006C27.3198 5.90452 28.6944 3.61403 27.6131 1.4793C27.1599 0.719474 26.3769 0.194343 25.4046 0.0155326C22.0755 -0.17473 18.975 1.41227 16.1135 3.16678C9.85563 7.51396 4.8497 13.5376 2.01714 20.1312C0.384026 24.1094 -1.09288 29.8081 1.12095 34.4464C2.83347 37.6646 6.38891 39.3741 10.6307 39.0166C13.6058 38.7041 17.2032 37.7425 19.6227 37.162C22.0422 36.5805 34.4275 32.3231 38.4969 39.7328C38.4969 39.7328 39.8501 37.1059 43.2319 37.0499C46.0123 36.7933 50.0232 37.8548 52.9442 40C51.971 38.5366 49.2121 36.3797 46.9104 34.8932V34.8932Z" fill="#787878"/>
<path d="M27.5084 10.0283C25.1919 8.50845 20.5361 11.414 16.8071 16.3979C13.397 20.8685 11.9245 26.0644 13.5269 28.4671C15.9107 31.2943 20.3359 27.182 22.2178 24.9808L22.4606 24.7235C23.7404 23.3489 24.7291 21.6949 25.686 20.1079C25.686 20.1079 26.5656 18.6551 26.6076 18.5879C27.1512 18.4878 27.806 18.3313 28.5438 18.1189C28.5333 18.1521 25.7209 22.8794 26.0078 25.2258C26.0971 25.9416 26.0289 28.5566 28.582 29.3499C31.9847 29.9202 34.7018 27.2825 37.0989 24.9356C37.0989 24.9356 37.5074 24.5449 37.7384 24.3218C37.6799 24.5559 37.6037 24.8681 37.6037 24.8681C36.6075 28.3326 37.9504 29.0594 38.7903 29.3277C41.329 30.0657 44.3617 26.3776 44.3715 26.3776C44.2928 27.5393 44.0629 28.5004 45.2875 29.2715C46.4435 29.6853 47.6133 29.0545 48.5025 28.4622C51.7053 26.2049 54.2856 22.6719 56.3698 19.6179H55.0404C55.0247 19.6179 51.76 24.3497 49.6401 25.3782C49.6367 25.3782 49.251 25.5762 49.0286 25.4195C48.7535 25.1847 48.8621 24.6967 49.032 24.351C49.0427 24.3284 57.2171 10.1506 57.2171 10.1506H53.3575C53.3575 10.1506 52.9359 10.8327 52.9016 10.8774C52.8756 10.8551 52.8138 10.7379 52.7708 10.6817C50.3796 7.3739 44.9644 12.4618 40.8875 18.3621C39.3179 20.6309 37.3196 23.1854 35.2474 25.0292C35.2474 25.0292 32.1777 27.8432 30.866 25.8214C30.3866 24.972 30.5341 23.7301 30.8045 22.9145C32.3316 18.5673 34.9631 14.6221 37.9575 12.2415C38.8029 11.5826 39.7217 11.392 40.1776 11.6715C40.612 11.9289 40.6821 12.5654 40.4073 13.0013C39.7099 12.979 39.1512 13.191 38.6969 13.6604C37.8021 14.5992 37.4912 15.5045 37.7757 16.354C39.1577 18.3207 41.9141 14.4316 41.7808 12.0625C41.7332 11.2131 41.28 10.4086 40.6036 10.0171C39.5957 9.41396 38.058 9.57017 37.0629 10.051C35.7307 10.5537 33.622 12.3081 32.391 13.6717C30.8415 15.3817 28.1839 17.2813 27.3528 17.0686C27.625 16.3419 29.8698 11.749 27.5084 10.0283V10.0283ZM46.1164 16.8228C46.8672 15.7836 49.0525 13.0009 49.5852 12.5316C51.377 10.9553 52.0932 11.6489 52.1552 12.1402C50.483 15.1351 48.5093 18.5661 46.6537 21.6506C46.6575 21.6396 46.073 22.5334 46.073 22.5334C45.2535 23.7847 44.4283 24.8576 43.0823 25.6063C42.8903 25.6625 42.5739 25.6849 42.3633 25.528C42.1099 25.3603 42.0099 25.0809 42.0384 24.7901C42.119 23.8293 43.0974 20.8908 46.1164 16.8228V16.8228ZM25.1195 18.6218C25.1195 18.6218 25.0859 18.7228 25.0693 18.7558C25.065 18.7558 23.3866 21.4934 23.3866 21.4934C22.3735 22.8458 21.1087 24.5449 19.5277 25.3603C19.0591 25.5168 18.4113 25.6176 18.0812 25.2044C17.3814 24.3661 17.742 23.2039 18.0351 22.2652L18.1388 21.9299C18.9789 19.6504 20.312 17.6385 21.6094 15.7722C21.6256 15.7612 21.662 15.75 21.6751 15.75C21.6782 15.7612 21.6833 15.7612 21.6856 15.7836C22.4998 17.3479 24.0265 18.074 25.1682 18.4098C25.1751 18.4098 25.1824 18.4209 25.1824 18.4433C25.1826 18.4766 25.164 18.5217 25.1195 18.6218V18.6218ZM26.7097 15.3926C26.7024 15.4149 25.9621 17.1133 25.9621 17.1133C25.8551 17.2027 25.6859 17.1581 25.492 17.1133L25.1597 17.0571C24.1163 16.7333 23.3293 16.0403 23.0867 15.2135C22.7519 13.6042 24.1267 12.3413 24.7324 11.8834C25.3136 11.4807 26.2171 11.2685 26.7418 11.6821C27.0654 12.0622 27.188 12.5537 27.188 13.0905C27.1881 13.8167 26.964 14.6324 26.7097 15.3926V15.3926Z" fill="#787878"/>
<path d="M75.5053 20.5778C75.1331 19.7734 74.2496 19.2592 73.3081 19.315C70.2506 19.5946 67.26 22.1089 65.6898 25.7183C64.8658 27.5735 64.4161 29.1043 64.1213 31.5405C65.072 30.4457 67.0112 28.6466 69.2119 27.663C69.2119 27.663 69.5114 25.3275 71.0384 23.2488C71.6162 22.388 72.7726 21.0025 74.071 21.3711C75.2054 21.7513 74.8067 24.8915 73.2989 27.9306C72.1833 30.1659 70.4761 32.4016 68.7488 33.9434C67.2216 35.2398 64.9622 36.8042 62.9853 35.5974C61.7402 34.8602 61.1051 33.3176 61.2394 31.3284C61.8343 25.6851 64.4031 20.8797 68.0794 15.4039C71.87 10.3192 76.0484 5.1004 81.6773 2.31731C82.8255 1.73629 83.8887 1.60222 84.8078 1.95985C84.8078 1.95985 79.5238 4.8654 77.0051 10.2409C76.3643 11.6045 75.4732 13.4478 76.3706 15.0796C76.8395 15.9287 77.6722 15.9959 78.3426 15.9512C81.43 15.2358 83.4247 12.3527 85.0544 9.71557C85.9993 7.71522 86.8392 5.72601 86.8392 3.51325C86.8392 3.24511 86.8253 2.88764 86.8025 2.6192C88.2776 1.83723 91.3023 3.22266 91.3023 3.22266C93.6659 4.00525 98.6987 7.86089 100.396 8.59812C101.224 7.63719 102.585 6.18456 103.352 5.45802L102.242 4.77622C100.466 3.69221 98.5893 2.66394 96.7417 1.64712C92.5457 -0.643517 89.1303 0.1609 87.3919 0.786813C86.7088 1.03251 86.0844 1.24491 86.0844 1.24491C84.7944 -0.163126 82.6787 -0.0293623 81.1198 0.350858C75.5137 1.96 70.3086 5.88237 64.7282 12.6883C60.6255 18.019 58.0806 22.6234 56.7242 27.1715C55.6787 30.2333 55.3609 34.737 57.9128 37.408C60.0825 39.6758 62.9595 39.1846 64.9912 38.369C69.393 36.201 73.3493 31.5295 75.3206 26.1542C75.7963 24.5564 76.3243 22.299 75.5053 20.5778V20.5778ZM85.627 3.73695C85.0443 10.4198 79.8497 14.3427 78.5644 14.6551C77.7855 14.8113 76.4564 14.4651 77.6429 11.6605C79.3902 7.88288 82.3733 4.6759 85.5741 3.03301C85.6519 3.31245 85.65 3.4908 85.627 3.73695V3.73695Z" fill="#787878"/>
<path d="M116.44 4.58575C113.646 6.1729 110.75 7.20071 107.243 6.84325C106.271 7.93871 105.325 9.06731 104.453 10.2293C109.374 11.481 114.592 8.69838 117.502 6.05013C120.58 3.37912 122.158 0.015625 122.158 0.015625C122.158 0.015625 119.851 2.65273 116.44 4.58575Z" fill="#787878"/>
<path d="M61.567 13.5103L63.6353 10.1509H59.9699L57.9023 13.5103H61.567Z" fill="#787878"/>
<path d="M107.228 35.2041C106.834 35.4723 106.28 35.2661 106.487 34.6517C107.003 33.0871 109.053 29.8988 109.053 29.8988L114.763 19.7709H110.852C110.666 20.0762 110.268 20.7776 110.268 20.7776C110.087 20.4762 109.546 19.8058 109.323 19.6611C108.368 19.0571 106.966 19.3427 105.998 19.8901C101.793 22.349 98.7251 27.2071 96.3054 30.9957C96.3054 30.9957 93.7582 35.2072 92.3442 35.5204C91.2404 35.6098 91.3543 34.1229 91.4021 33.7764C91.8289 31.2727 92.82 28.8926 93.8187 26.7357C95.8497 25.3277 98.1677 23.4839 100.274 21.4612C104.846 17.0913 108.7 12.1406 109.263 11.0343C109.263 11.0343 108.653 11.1574 107.933 11.1796C104.416 16.0855 97.2193 23.2156 95.0374 24.277C96.004 21.9522 102.249 10.8554 107.563 5.54726L108.4 4.74239C109.693 3.47957 111.033 2.18331 112.077 1.9709C112.187 1.95976 112.329 1.9709 112.452 2.22835C112.498 3.21158 112.132 3.93812 111.712 4.76499L111.124 5.97207C111.124 5.97207 111.957 5.81555 112.505 5.63628C113.14 4.44111 113.843 3.09965 113.584 1.50196C113.498 0.987828 113.125 0.596766 112.639 0.507284C111.054 0.205552 109.326 1.37858 107.936 2.32883L107.88 2.36212C100.733 7.96097 94.6985 16.0296 89.4226 27.0485C89.0403 27.3386 87.5629 27.6854 87.3117 27.5176C87.8327 26.445 88.4887 25.0031 88.817 23.4385C88.8738 22.9914 88.9267 22.5335 88.9267 22.0865C88.9267 21.1247 88.6958 20.2198 87.8341 19.5942C86.8239 19.0912 85.5752 19.326 84.7334 19.7058C80.9621 21.2704 78.1434 25.1373 76.1094 28.3218C75.0155 30.3451 73.9248 32.512 73.6227 34.9934C73.41 36.9376 73.8431 38.1892 74.9485 38.8153C76.0853 39.396 77.5161 38.7924 78.0782 38.5021C81.8989 36.4906 84.5684 32.4566 86.6727 28.7685C86.7564 28.7575 87.9053 28.7242 88.7743 28.5003C88.7859 28.5003 88.7908 28.5003 88.81 28.5121C88.7602 28.679 88.3112 30.0205 88.3112 30.0205C86.9775 33.9315 86.3607 36.5915 87.6205 38.1669C89.4207 40.391 92.4009 38.0891 94.8253 35.0488C94.3049 38.6919 96.193 39.2621 97.6322 38.983C99.2855 38.5362 101.128 36.77 101.983 35.8652C101.708 36.9266 101.783 38.8266 103.287 39.0164C104.318 39.207 105.089 38.6463 105.982 38.1656C109.184 36.422 113.017 30.6123 114.012 28.9326H112.707C111.292 31.0706 109.492 33.8737 107.228 35.2041V35.2041ZM78.4871 34.815C78.284 34.5133 78.2167 34.1833 78.21 33.8266C78.171 31.6354 80.5285 27.7112 82.1927 25.5734C82.1962 25.5734 82.1962 25.5734 82.1962 25.5734C82.8935 27.1004 84.4728 28.0819 85.4261 28.4956C84.242 31.1332 80.1813 36.7818 78.4871 34.815V34.815ZM86.0943 27.3165C85.9814 27.3951 83.9901 26.7243 83.6053 24.8805C83.2788 23.293 84.372 22.0526 85.4296 21.4273C85.8835 21.0696 86.5673 20.9469 87.0689 21.125C87.5345 21.4383 87.6607 21.9975 87.6607 22.6001C87.6607 22.9696 87.6116 23.3492 87.5684 23.6955C87.5684 23.6955 87.5602 23.7629 87.5588 23.774C87.227 25.0141 86.7193 26.2323 86.0943 27.3165V27.3165ZM102.066 34.1111C102.064 34.1111 101.688 34.4463 101.688 34.4463C101.151 34.9265 100.598 35.4406 99.9309 35.1835C99.7466 35.1165 99.617 34.8709 99.5858 34.6804C99.5554 33.3058 100.174 32.0321 100.775 30.7919L100.929 30.4676C102.655 27.5844 104.662 24.1872 107.61 21.8295C108.107 21.4712 108.646 21.17 109.215 21.4049C109.346 21.5275 109.498 21.7401 109.498 21.9522C109.498 22.0195 109.438 22.1981 109.404 22.2537C108.581 23.5842 107.797 24.9809 107.034 26.3218C105.544 28.9705 103.998 31.7081 102.066 34.1111V34.1111Z" fill="#787878"/>
</g>
<defs>
<clipPath id="clip0_2614_759">
<rect width="122.159" height="40" fill="white"/>
</clipPath>
</defs>
</svg>
