<svg width="95" height="38" viewBox="0 0 95 38" fill="none" xmlns="http://www.w3.org/2000/svg">
<g clip-path="url(#clip0_2614_789)">
<path d="M78.5975 20.2858C78.5209 24.5135 79.434 26.7528 82.9191 26.7528C86.3985 26.7528 86.8978 22.9382 86.8978 20.0355C86.8978 17.1308 86.2376 14.311 82.582 14.311C80.3394 14.311 78.6837 16.0536 78.5975 20.2858ZM71.5469 37.9526V9.33495H78.6837C78.6837 9.33495 78.6837 9.74936 78.6837 10.4958C78.6837 12.0442 79.3082 11.4057 79.8114 10.8023C79.8957 10.7014 81.4862 8.75453 85.0684 8.75453C88.6397 8.75453 94.1956 11.2422 94.1956 20.0355C94.1956 26.8371 90.881 31.8132 85.1565 31.8132C82.0022 31.8132 80.1785 30.5712 79.7616 30.07C79.344 29.5757 78.7642 29.4895 78.7642 30.07C78.7642 30.6517 78.7642 37.9526 78.7642 37.9526H71.5469" fill="#787878"/>
<path d="M16.3862 0.0470917H24.101C24.101 0.0470917 24.101 16.8009 24.101 20.286C24.101 23.7672 22.6062 31.0688 11.9076 31.0688C1.20773 31.0688 0.046875 24.2634 0.046875 20.4507V16.7185H7.51258C7.51258 16.7185 7.51258 18.1284 7.51258 20.3664C7.51258 22.6058 9.0061 24.6784 11.8246 24.6784C14.6443 24.6784 16.3862 23.1032 16.3862 20.4507C16.3862 17.7963 16.3862 0.0470917 16.3862 0.0470917Z" fill="#787878"/>
<path d="M40.2343 17.2156C40.2343 15.1398 39.0754 13.1495 36.421 13.1495C33.8496 13.1495 32.9365 14.9725 32.9365 17.2156H40.2343ZM35.6771 8.50544C41.7355 8.50544 47.0417 10.8271 47.0417 21.5276H32.6932C32.6932 24.9285 34.1018 26.339 36.5902 26.339C39.0792 26.339 39.908 24.3468 39.908 24.3468H46.9606C46.9606 27.4168 42.7297 31.5641 36.3412 31.4817C29.044 31.4817 25.4766 26.0899 25.4766 20.5322C25.4766 14.9725 28.6264 8.50544 35.6771 8.50544" fill="#787878"/>
<path d="M63.1737 17.2156C63.1737 15.1398 62.0135 13.1495 59.3591 13.1495C56.789 13.1495 55.874 14.9725 55.874 17.2156H63.1737ZM58.6165 8.50544C64.6743 8.50544 69.9792 10.8271 69.9792 21.5276H55.6314C55.6314 24.9285 57.0413 26.339 59.5315 26.339C62.018 26.339 62.8481 24.3468 62.8481 24.3468H69.9006C69.9006 27.4168 65.6691 31.5641 59.2825 31.4817C51.9815 31.4817 48.4141 26.0899 48.4141 20.5322C48.4141 14.9725 51.5678 8.50544 58.6165 8.50544" fill="#787878"/>
<path d="M89.4719 34.5219C89.4719 33.3885 90.3946 32.4677 91.5318 32.4677C92.6652 32.4677 93.586 33.3885 93.586 34.5219C93.586 35.6534 92.6652 36.5799 91.5318 36.5799C90.3946 36.5799 89.4719 35.6534 89.4719 34.5219ZM89.2344 34.5219C89.2344 35.79 90.2611 36.8193 91.5318 36.8193C92.7942 36.8193 93.8267 35.79 93.8267 34.5219C93.8267 33.2538 92.7942 32.2245 91.5318 32.2245C90.2611 32.2245 89.2344 33.2538 89.2344 34.5219" fill="#787878"/>
<path d="M92.4541 35.6968L91.9771 34.5704C92.1284 34.518 92.1788 34.481 92.2593 34.3948C92.364 34.2824 92.4298 34.1049 92.4298 33.944C92.4298 33.5379 92.1175 33.2614 91.6648 33.2614H90.707V35.6968H90.9912V34.6419H91.6833L92.138 35.6968H92.4541ZM90.9835 34.3948V33.5264H91.6591C91.9413 33.5264 92.1207 33.6873 92.1207 33.9363C92.1207 34.2192 91.9305 34.3948 91.6195 34.3948H90.9835Z" fill="#787878"/>
</g>
<defs>
<clipPath id="clip0_2614_789">
<rect width="94.2437" height="38" fill="white"/>
</clipPath>
</defs>
</svg>
