<svg width="24" height="24" viewBox="0 0 24 24" fill="none" xmlns="http://www.w3.org/2000/svg">
<path d="M0 13.7768V10.2779H4.47273L8.29091 10.8793L8.56364 10.2232L5.45455 7.92711L2.29091 4.75626L4.74545 2.29613L7.90909 5.4123L10.2 8.58314L10.8545 8.30979L10.2545 4.42825V0H13.7455V4.42825L13.1455 8.30979L13.8 8.58314L16.0909 5.4123L19.2545 2.29613L21.7091 4.75626L18.6 7.92711L15.4364 10.2232L15.7091 10.8793L19.5273 10.2779H24V13.7768H19.5273L15.7091 13.1754L15.4364 13.8314L18.6 16.1276L21.7091 19.2984L19.2545 21.7585L16.0909 18.5877L13.8 15.4169L13.1455 15.6902L13.7455 19.5718V24H10.2545V19.5718L10.8545 15.6902L10.2 15.4169L7.90909 18.5877L4.74545 21.7585L2.29091 19.2984L5.45455 16.1276L8.56364 13.8314L8.29091 13.1754L4.47273 13.7768H0Z" fill="#EF4824"/>
</svg>
