<svg width="148" height="36" viewBox="0 0 148 36" fill="none" xmlns="http://www.w3.org/2000/svg">
<g clip-path="url(#clip0_2614_767)">
<path d="M16.1695 16.1161L14.4092 23.5098H20.4397C19.8559 27.4771 10.0805 29.1874 11.5719 19.581C12.6207 12.8624 21.0315 9.23994 22.8908 14.4409L33.2812 11.8375C31.7844 5.37128 26.0618 2.17224 19.7708 2.17224C11.1142 2.16878 1.38069 8.22355 0.102699 20.1405C-0.970324 30.1371 6.52234 35.6355 15.2213 35.4922C21.4067 35.3859 26.2979 33.1346 28.6817 31.4432L32.3019 16.1161H16.1695ZM35.0701 12.6463L29.8445 34.7952H40.6337L45.857 12.6463H35.0701ZM50.7794 0L42.5713 34.7952H53.3639L61.5651 0H50.7794ZM48.1267 3.18902H37.3198L35.4616 11.2889L46.9628 8.42583L48.1267 3.18902ZM136.452 11.1729C132.068 11.1729 128.379 13.1641 125.839 16.2495C126.242 14.6259 126.705 12.7599 126.709 12.7599H122.231L124.505 3.19364H113.726L111.44 12.7734L109 12.7757L111.296 3.19364H100.513L98.2579 12.7441L94.8069 12.7634L93.1871 18.6217C91.9916 13.5293 87.1986 11.134 82.6846 11.134C76.2838 11.134 71.3911 15.3429 69.3545 21.0178L74.3081 0H63.5201L55.32 34.7952H66.1057L68.451 24.8487C68.0376 28.8079 69.5402 35.9522 79.2517 35.9522C84.1252 35.9522 90.3668 32.7852 91.856 28.3906L83.4286 26.918C82.4827 28.1413 81.0645 28.8707 79.6886 28.8707C77.3746 28.8707 76.7177 26.8934 77.1858 25.1164L92.8604 25.0979C93.0072 24.5632 93.3466 23.9818 93.4665 22.0523C93.5038 21.4651 93.4849 20.9257 93.4549 20.387H96.4651L93.0469 34.8126H103.826L107.246 20.387H109.637L106.25 34.8126H117.037L120.463 20.387H123.385C123.375 20.414 123.369 20.4302 123.369 20.4302C122.846 21.7186 122.47 23.0914 122.274 24.5185L122.273 24.5242C121.73 28.3933 123.021 35.9996 133.037 35.9996C137.908 35.9996 144.151 32.8303 145.642 28.4368L137.21 26.9596C136.268 28.1864 134.845 28.9146 133.472 28.9146C131.156 28.9146 130.496 26.9396 130.969 25.1592L130.963 25.1534L146.64 25.1592C146.77 24.6244 147.109 24.0234 147.231 22.0939C147.745 14.6166 141.89 11.1729 136.452 11.1729ZM84.3421 20.7099L78.3786 20.6702C79.2879 17.5779 84.8141 16.8775 84.3421 20.7099ZM138.123 20.7438L132.158 20.7323C133.07 17.6407 138.592 16.9141 138.123 20.7438Z" fill="#787878"/>
</g>
<defs>
<clipPath id="clip0_2614_767">
<rect width="147.263" height="36" fill="white"/>
</clipPath>
</defs>
</svg>
