<svg width="133" height="36" viewBox="0 0 133 36" fill="none" xmlns="http://www.w3.org/2000/svg">
<g clip-path="url(#clip0_2614_769)">
<path d="M18.2773 33.6795C16.2778 34.0314 14.243 34.1369 12.1382 34.4179L5.71816 15.5743V35.2266C3.7186 35.4375 1.89441 35.7188 0 36V0H5.3325L12.6293 20.4261V0H18.2773V33.6795ZM29.328 13.1836C31.5032 13.1836 34.8358 13.0781 36.8354 13.0781V18.703C34.3445 18.703 31.4329 18.703 29.328 18.8085V27.1758C32.6257 26.9649 35.9234 26.6834 39.2559 26.5779V31.9917L23.7148 33.2224V0H39.2559V5.62501H29.328V13.1836V13.1836ZM60.1293 5.62514H54.3058V31.5001C52.4114 31.5001 50.517 31.5001 48.6931 31.5702V5.62514H42.8696V0H60.1295L60.1293 5.62514V5.62514ZM69.2503 12.797H76.9333V18.4219H69.2503V31.1837H63.7422V0H79.424V5.62501H69.2503V12.797V12.797ZM88.5451 26.2617C91.7376 26.3318 94.9648 26.5783 98.0872 26.7538V32.3086C93.0707 31.992 88.054 31.676 82.9322 31.5702V0H88.5451V26.2617ZM102.823 32.6953C104.612 32.8009 106.507 32.9064 108.331 33.1171V0H102.823V32.6953V32.6953ZM132.923 0L125.801 17.1211L132.923 36C130.818 35.7188 128.713 35.332 126.608 34.9804L122.574 24.5744L118.47 34.1369C116.435 33.785 114.47 33.6795 112.436 33.3983L119.663 16.91L113.137 0H119.171L122.855 9.45705L126.784 0H132.923V0Z" fill="#787878"/>
</g>
<defs>
<clipPath id="clip0_2614_769">
<rect width="132.923" height="36" fill="white"/>
</clipPath>
</defs>
</svg>
