<svg width="126" height="44" viewBox="0 0 126 44" fill="none" xmlns="http://www.w3.org/2000/svg">
<g clip-path="url(#clip0_2614_814)">
<path d="M120.506 14.6196C118.302 14.6157 116.302 16.3936 113.815 18.4636C111.532 20.3602 106.862 25.1551 102.602 27.8865C103.789 26.0212 106.651 21.9907 107.082 20.0994C107.534 18.1167 106.081 17.3471 104.082 18.5732C101.903 19.9167 99.8253 26.3734 96.7483 26.3734C96.1874 26.3734 95.7962 26.0995 95.8014 25.4734C95.8144 23.582 98.7427 19.8124 103.999 17.7385C104.815 17.4124 105.128 16.8867 105.132 16.4341C105.132 16.2906 105.108 15.3331 103.493 15.3331C98.3019 15.3331 91.2948 21.392 90.3126 26.0369C89.3017 27.0543 87.4821 28.5622 85.176 29.5457C87.7795 25.8582 90.0204 22.8933 91.1956 19.815C92.5522 16.228 90.6217 15.7583 88.639 16.8071C86.7086 17.8271 85.352 20.6589 84.7781 21.7376C84.2172 22.8072 83.7346 24.1768 82.0389 25.5399C80.3432 26.9029 78.5823 26.6747 79.8241 24.0138C80.9367 21.6372 83.4372 19.1446 85.5894 17.9967C86.0981 17.7228 86.5455 17.561 86.5286 16.8749C86.5025 15.7857 85.2424 15.0305 83.4463 15.8053C81.0071 16.8618 79.8358 17.5662 77.7684 17.5662C76.1275 17.5662 75.277 17.1228 74.5766 16.8319C73.6374 16.4328 72.9461 16.571 72.5809 16.6884C72.2522 16.8005 71.733 17.1188 71.2987 17.5949C70.9543 17.9732 70.6635 18.5928 70.5943 18.9906C70.1117 21.8994 67.5656 27.1169 65.6951 27.1169C65.0494 27.1169 64.3385 26.9343 64.5211 25.4473C64.8211 23.0133 67.756 19.7237 68.4343 19.0689C69.1125 18.4088 70.3908 17.9602 70.4821 17.2297C70.5604 16.6167 70.1873 15.9319 68.9821 15.9319C65.0259 15.9319 59.7393 21.4154 59.2123 26.3408C58.5993 26.9147 57.861 27.4756 57.0171 27.4756C55.191 27.4756 54.6718 25.7669 54.8022 24.4103C59.6076 20.0746 68.7225 10.4078 68.9978 3.52725C69.063 1.88374 68.2621 1.06196 66.916 1.06196C63.5246 1.06196 58.7714 6.01857 55.8157 9.84039C52.1791 14.5466 49.9408 20.2297 49.1504 24.5381C46.4895 26.8468 45.4095 27.0008 44.2512 27.0008C42.6416 27.0008 42.0793 25.836 42.1302 24.9203C46.6173 20.8428 54.4175 11.1278 54.574 6.32644C54.621 4.90467 53.8174 4.23421 52.3787 4.23421C49.3199 4.23421 44.9881 7.46256 41.8733 11.7135C38.7624 15.9658 36.7445 20.9668 36.1731 25.5008C33.8448 27.593 32.1035 28.0182 30.6687 28.0182C29.8013 28.0182 29.1647 27.4078 29.0121 27.1521C31.073 25.9625 35.7688 22.9781 35.7688 18.5302C35.7688 16.3206 34.2779 15.3345 32.7948 15.3345C29.0226 15.3345 23.0902 20.0354 23.1294 26.5234C23.1294 26.6382 23.1476 27.0373 23.1685 27.1821C21.4598 27.7691 20.2832 28.3691 20.5545 29.5978C20.8024 30.7117 22.185 30.6544 23.9851 30.0191C24.3998 30.7887 26.1633 32.0578 28.6547 32.0578C32.0278 32.0578 34.6027 30.4574 36.6375 28.7186C37.4918 30.7209 39.5984 31.7709 41.8028 31.7709C44.4768 31.7709 47.1247 29.9578 49.2117 28.3143C49.4543 29.8495 51.0156 32.2405 53.717 32.2405C56.1822 32.2405 58.0658 30.8057 59.5541 29.2535C59.9454 30.8187 61.3802 32.0578 63.2507 32.0578C69.4895 32.0578 72.9879 23.2272 73.794 20.0576C73.8983 19.6532 74.2844 19.5619 74.5505 19.6571C75.7114 20.0615 76.2801 20.2623 77.7462 20.0954C75.3722 21.9606 73.2801 25.1433 73.2801 27.469C73.2801 29.7908 75.2927 30.8695 76.7627 30.8695C78.2367 30.8695 80.1854 29.9174 81.4676 28.7174C81.1285 29.4009 80.6719 30.4456 79.9415 31.1826C78.598 31.5517 74.6587 32.9735 72.1543 34.4957C69.7804 35.9436 67.4846 38.2445 67.4846 40.8924C67.4846 42.3089 68.6456 43.9707 71.3756 43.9707C75.9644 43.9707 79.1758 40.9707 83.5063 33.0923C87.0934 31.5883 89.2455 30.1835 90.6543 28.99C91.2725 30.0674 92.4622 30.5683 93.6544 30.5683C95.4153 30.5683 96.4719 30.0595 97.8936 29.0382C97.698 29.5208 97.3849 30.246 96.9023 30.8904C94.3379 31.9574 91.2582 33.3687 89.6812 34.3209C85.4746 36.8566 84.542 39.1301 84.542 40.9211C84.542 42.0167 85.4812 43.9212 88.3156 43.9212C94.4461 43.9212 98.2418 36.2971 100.715 31.9861C102.528 31.0248 105.119 29.2417 107.781 27.1991C107.689 27.5252 107.646 27.8643 107.646 28.2491C107.646 30.1626 109.381 31.9626 112.225 31.9626C117.843 31.9626 119.591 27.8226 119.521 23.3538C119.495 21.8929 119.28 20.7293 119.261 20.2102C119.208 18.8458 119.662 18.1102 120.904 18.1102C122.156 18.1102 123.004 17.8884 123.004 16.8188C123.004 15.3384 121.948 14.6666 120.513 14.6666M63.9029 6.73605C64.0633 6.73605 64.1298 6.87949 64.1246 7.10123C64.0763 8.86214 59.5463 15.9775 55.3553 20.1189C57.878 12.7035 62.9076 6.73605 63.899 6.73605M28.0782 24.5851C28.2608 21.4246 30.7652 18.9893 31.7539 18.9893C32.1191 18.9893 32.2887 19.198 32.2887 19.6324C32.2887 20.7593 30.7756 23.115 28.0847 24.5851M49.3721 9.34997C49.5612 9.34997 49.6421 9.49736 49.6356 9.73737C49.603 11.0391 46.3421 17.0158 42.1563 21.1572C44.3555 14.4396 47.9347 9.3526 49.3695 9.3526M72.2704 39.9532C71.9495 39.9532 71.7878 39.7445 71.7878 39.4367C71.7878 37.5153 76.0531 35.2445 78.2901 34.424C77.3249 35.9867 73.7822 39.9546 72.2665 39.9546M89.3408 40.0589C89.0278 40.0589 88.9104 39.8711 88.9104 39.5633C88.9104 37.8676 92.7765 35.2405 95.0109 34.4214C93.85 36.4301 90.6217 40.0563 89.3369 40.0563M112.64 27.8474C112.371 27.8474 111.961 27.7821 111.961 26.8782C111.961 26.2208 111.648 25.4929 110.503 25.4929C110.346 25.4929 110.177 25.506 109.984 25.5386C112.436 23.5951 114.353 21.4559 116.14 20.0081C115.775 24.4299 114.719 27.8474 112.632 27.8474" fill="#787878"/>
<path d="M110.484 13.8008C110.402 14.5769 109.537 14.9252 109.462 15.6191C109.419 16.0235 109.704 16.2908 110.208 16.2843C111.494 16.2712 114.943 14.2808 115.243 11.1842C115.394 9.62288 114.418 8.2676 112.716 8.2676C110.994 8.2676 109.437 9.88244 109.292 11.239C109.153 12.5655 110.564 13.0455 110.484 13.8008M20.8516 35.6386C19.7468 35.5812 19.229 34.2626 19.229 32.6647C19.229 30.9077 20.3638 27.1015 20.8138 25.3002C21.2703 23.4832 21.466 20.5444 19.8225 18.8591C26.0704 16.3456 35.3185 7.78501 36.5054 5.91584C37.6924 4.04406 37.9272 1.66358 36.2837 0.473987C34.6532 -0.715604 31.9793 0.836629 30.401 3.10885C26.0574 9.37246 23.4356 12.4299 20.4746 15.0048C18.1659 17.0135 17.0441 17.0461 15.9354 17.2C15.9354 17.2 20.2007 10.2176 21.7921 8.12151C23.703 5.6145 21.3486 4.67801 19.0659 6.26152C18.6029 6.5837 14.9937 9.07899 10.6214 11.3356C2.83429 15.353 0.959882 17.2052 0.959882 19.6157C0.959882 20.6853 1.70336 22.0314 3.26861 22.0314C6.32085 22.0314 9.3392 16.5765 10.8171 15.2187C11.391 14.6839 12.7253 13.5229 13.2432 13.5229C13.4127 13.5229 13.5301 13.6273 13.5301 13.9534C13.5301 14.9969 11.5045 17.9578 8.36483 21.3492C3.80995 26.2667 0.0820312 28.2493 0.0820312 31.3929C0.0820312 33.4408 1.62119 34.5495 3.28557 34.5495C6.79434 34.5495 9.14223 29.8667 10.5457 27.545C11.1066 26.6189 14.2019 20.8496 14.8541 19.6014C15.5324 19.9627 15.9498 20.7153 15.728 22.244C15.3106 24.9963 12.8584 28.3302 12.8584 32.979C12.8584 36.7747 16.3672 37.9657 17.7759 37.9683C19.0777 37.9683 20.7994 37.4661 21.2273 36.163C21.2794 35.9674 21.2142 35.6373 20.8673 35.6151M124.589 14.0539C125.319 14.0539 125.789 14.5234 125.789 15.2578C125.789 15.9882 125.319 16.4578 124.589 16.4578C123.852 16.4578 123.385 15.9882 123.385 15.2578C123.385 14.5195 123.849 14.0473 124.587 14.0473M124.587 16.1604C125.142 16.1604 125.493 15.8043 125.493 15.2473C125.493 14.6904 125.14 14.3395 124.587 14.3395C124.029 14.3395 123.678 14.6916 123.678 15.2447C123.678 15.7978 124.03 16.1578 124.583 16.1578M124.662 14.6317C124.848 14.6317 125.058 14.723 125.058 14.9943C125.058 15.1743 124.941 15.2812 124.81 15.3334C124.894 15.4508 124.959 15.6178 125.058 15.6178H125.127C125.14 15.6308 125.153 15.6569 125.153 15.7091C125.153 15.7926 125.092 15.8525 124.971 15.8525C124.736 15.8525 124.71 15.5734 124.553 15.3699H124.414V15.8265C124.388 15.8448 124.323 15.8525 124.27 15.8525C124.192 15.8525 124.127 15.8395 124.127 15.7221V14.6474C124.153 14.6343 124.205 14.6291 124.268 14.6291H124.659L124.662 14.6317ZM124.418 14.8534V15.1534H124.596C124.722 15.1534 124.792 15.0947 124.792 14.9969C124.792 14.9056 124.727 14.8534 124.623 14.8534H124.419H124.418Z" fill="#787878"/>
</g>
<defs>
<clipPath id="clip0_2614_814">
<rect width="125.839" height="44" fill="white"/>
</clipPath>
</defs>
</svg>
