<svg width="192" height="34" viewBox="0 0 192 34" fill="none" xmlns="http://www.w3.org/2000/svg">
<g clip-path="url(#clip0_2614_783)">
<path d="M18.1916 0.027832L22.1061 11.939H22.2179L18.3035 0.027832H18.1916ZM35.2755 13.5328L35.1637 13.6166L25.0419 20.9982L28.9005 32.9653L28.9285 33.0492L29.0123 32.9933L25.1817 21.0262L35.3035 13.6166L35.2755 13.5328ZM17.3528 26.6183L7.20312 33.9439L7.28701 33.9999L17.4087 26.6463L17.3528 26.6183Z" fill="#787878"/>
<path d="M75.1642 17.9561C75.1642 19.1058 74.6677 19.448 72.8044 20.099C71.3124 20.6593 70.1638 20.9076 69.8215 20.9076C69.1997 20.9076 68.9212 20.4412 68.9212 19.4783C68.9212 17.1799 69.5721 14.3838 71.9957 14.3838C74.2326 14.3838 75.1642 16.8075 75.1642 17.9561M50.9314 27.9905C50.9314 27.8038 50.9023 27.6808 50.8095 27.5868C50.5601 27.3374 49.6285 27.1831 49.1621 26.7167C48.8221 26.3744 48.6029 25.785 48.6029 24.4183V19.1673C48.6029 18.7625 48.6968 18.5153 49.1006 18.5153H54.4444C54.8481 18.5153 54.9409 18.7625 54.9409 19.1673V24.4183C54.9409 25.785 54.724 26.3744 54.3817 26.7167C53.9154 27.1831 52.9837 27.3374 52.7354 27.5868C52.6415 27.6808 52.6113 27.8038 52.6113 27.9905C52.6113 28.7969 52.7354 29.6067 52.8596 29.7297C52.9837 29.855 53.1705 29.8851 53.5742 29.8851H62.3035C62.7073 29.8851 62.8929 29.855 63.0182 29.7297C63.1423 29.6067 63.2676 28.7969 63.2676 27.9905C63.2676 27.8038 63.2352 27.6808 63.1423 27.5868C62.9254 27.3698 61.9613 27.1831 61.4949 26.7167C61.1549 26.3744 60.9681 25.7224 60.9681 24.6655V10.1584C60.9681 9.41357 61.1549 8.91475 61.4334 8.63738C61.9311 8.13968 62.9254 8.04574 63.1423 7.82764C63.2352 7.73481 63.2676 7.54917 63.2676 7.39371C63.2676 6.8345 63.1423 5.99567 63.0182 5.87153C62.8929 5.74738 62.7699 5.71496 62.3035 5.71496H53.884C53.5429 5.71496 53.4188 5.74733 53.326 5.84133C53.2331 5.93416 53.1392 6.58621 53.1392 7.42503C53.1392 7.57937 53.1705 7.76613 53.2331 7.82764C53.3875 7.98422 54.1648 8.23253 54.4757 8.54345C54.8168 8.88569 54.9409 9.2581 54.9409 10.3139V14.4454C54.9409 14.6008 54.7855 14.8178 54.5685 14.8178H48.9764C48.7583 14.8178 48.6029 14.6008 48.6029 14.4454V10.3139C48.6029 9.2581 48.727 8.88569 49.0692 8.54345C49.3802 8.23253 50.1564 7.98422 50.3118 7.82764C50.3744 7.76609 50.4057 7.57937 50.4057 7.42503C50.4057 6.58621 50.3118 5.93416 50.219 5.84133C50.1261 5.74738 50.0009 5.71496 49.6598 5.71496H41.2414C40.775 5.71496 40.6509 5.74734 40.5256 5.87153C40.4026 5.99567 40.2773 6.8345 40.2773 7.39371C40.2773 7.54917 40.3086 7.73481 40.4026 7.82764C40.6196 8.04574 41.6138 8.13968 42.1104 8.63738C42.39 8.91475 42.5768 9.41357 42.5768 10.1584V24.6655C42.5768 25.7224 42.39 26.3744 42.0489 26.7167C41.5825 27.1831 40.6196 27.3698 40.4026 27.5868C40.3086 27.6808 40.2773 27.8038 40.2773 27.9905C40.2773 28.7969 40.4026 29.6067 40.5256 29.7297C40.6509 29.855 40.775 29.8851 41.2414 29.8851H49.9707C50.3744 29.8851 50.5601 29.855 50.6853 29.7297C50.8095 29.6067 50.9314 28.7969 50.9314 27.9905M79.7934 27.5555C80.6937 26.6552 80.9129 26.1261 80.9129 25.6911C80.9129 25.2247 80.7877 24.8523 80.4152 24.4798C80.0104 24.0761 79.6704 24.0134 79.3583 24.0134C78.9233 24.0134 78.7365 24.1376 78.458 24.4183C77.0913 25.785 75.351 26.5299 73.2383 26.5299C71.0954 26.5299 69.7589 25.1017 69.7589 24.1991C69.7589 23.9519 69.977 23.7338 70.5351 23.5784C76.5007 21.714 78.9859 20.4725 79.9175 19.5397C80.4454 19.0432 80.6624 18.4526 80.6624 17.9248C80.6624 15.5638 77.2467 11.3708 71.9957 11.3708C69.8215 11.3708 67.616 12.2387 65.9697 13.8861C64.3234 15.5336 63.2978 17.8621 63.2978 21.0317C63.2978 24.0761 64.2608 26.1888 65.9384 27.8664C67.616 29.544 70.0385 30.3829 72.6802 30.3829C75.3823 30.3829 77.9301 29.4199 79.7934 27.5555M89.5169 12.4255C89.5169 12.0229 89.2988 11.8663 88.9577 11.8663H82.9619C82.6196 11.8663 82.4966 11.8663 82.4015 11.9915C82.2785 12.1157 82.1555 12.9545 82.1555 13.5148C82.1555 13.6692 82.217 13.7922 82.2785 13.8861C82.4966 14.1658 82.9619 14.2586 83.3667 14.6008C83.6452 14.8804 83.7705 15.4709 83.7705 16.3713V24.6655C83.7705 25.7224 83.6452 26.4058 83.3343 26.7167C82.8679 27.1831 82.0917 27.4 81.8748 27.617C81.8132 27.6807 81.7819 27.8038 81.7819 28.0219C81.7819 28.8294 81.9061 29.6067 82.0302 29.7297C82.1242 29.8225 82.2785 29.8851 82.6196 29.8851H90.6052C90.9463 29.8851 91.1017 29.8225 91.1946 29.7297C91.3187 29.6067 91.4115 28.8294 91.4115 28.0219C91.4115 27.8038 91.3814 27.6808 91.3187 27.617C91.1017 27.4 90.3871 27.1831 89.9207 26.7167C89.6109 26.4058 89.5169 25.7224 89.5169 24.6655V12.4255V12.4255ZM86.193 4.59766C84.4851 4.59766 83.086 5.93416 83.086 7.6118C83.086 9.31962 84.4851 10.6561 86.193 10.6561C87.9332 10.6561 89.3313 9.31962 89.3313 7.6118C89.3313 5.93416 87.9332 4.59766 86.193 4.59766ZM110.269 16.6822C110.269 13.2028 108.467 11.4323 105.64 11.4323C104.304 11.4323 102.875 11.8663 101.446 12.7375C100.949 13.0484 100.794 13.1413 100.67 13.1413C100.172 13.1413 100.514 11.8663 99.6129 11.8663H94.1461C93.8038 11.8663 93.711 11.8663 93.5869 11.9915C93.4314 12.147 93.3073 12.9545 93.3073 13.5148C93.3073 13.6692 93.3386 13.7922 93.4314 13.8861C93.6797 14.1356 94.1461 14.2284 94.5185 14.6008C94.7992 14.8804 94.9211 15.4709 94.9211 16.3713V24.6655C94.9211 25.7224 94.8283 26.4058 94.5185 26.7167C94.0835 27.1506 93.3386 27.4 93.1205 27.617C93.059 27.6807 93.0265 27.8038 93.0265 28.0219C93.0265 28.8294 93.1205 29.6067 93.2457 29.7297C93.3386 29.8225 93.5242 29.8851 93.8665 29.8851H101.695C102.068 29.8851 102.191 29.8225 102.284 29.7297C102.44 29.5742 102.566 28.8294 102.566 28.0219C102.566 27.8038 102.533 27.6808 102.47 27.617C102.223 27.3698 101.509 27.1506 101.074 26.7167C100.763 26.4058 100.608 25.7224 100.608 24.6655V18.5466C100.608 16.0302 102.004 15.254 103.031 15.254C104.087 15.254 104.677 16.0301 104.677 17.6753V26.2827C104.677 28.5811 106.138 30.1021 108.778 30.1021C111.697 30.1021 112.94 27.9906 112.94 27.5555C112.94 27.1831 112.351 26.4371 111.978 26.4371C111.542 26.4371 110.921 26.9963 110.61 26.9963C110.393 26.9963 110.269 26.8408 110.269 26.3442V16.6822V16.6822ZM167.834 27.5555C168.735 26.6552 168.952 26.1261 168.952 25.6911C168.952 25.2247 168.829 24.8523 168.456 24.4798C168.051 24.0761 167.708 24.0134 167.399 24.0134C166.964 24.0134 166.777 24.1376 166.498 24.4183C165.131 25.785 163.392 26.5299 161.279 26.5299C159.136 26.5299 157.8 25.1017 157.8 24.1991C157.8 23.9519 158.017 23.7338 158.576 23.5784C164.541 21.714 167.026 20.4725 167.959 19.5397C168.486 19.0432 168.703 18.4526 168.703 17.9248C168.703 15.5638 165.287 11.3708 160.037 11.3708C157.86 11.3708 155.656 12.2387 154.008 13.8861C152.363 15.5336 151.338 17.8621 151.338 21.0317C151.338 24.0761 152.301 26.1888 153.978 27.8664C155.656 29.544 158.079 30.3829 160.719 30.3829C163.422 30.3829 165.971 29.4199 167.834 27.5555M163.205 17.9561C163.205 19.1058 162.709 19.448 160.844 20.099C159.353 20.6593 158.204 20.9076 157.86 20.9076C157.241 20.9076 156.96 20.4412 156.96 19.4783C156.96 17.1799 157.613 14.3838 160.037 14.3838C162.272 14.3838 163.205 16.8075 163.205 17.9561M129.654 27.5555C130.554 26.6552 130.773 26.1261 130.773 25.6911C130.773 25.2247 130.648 24.8523 130.276 24.4798C129.872 24.0761 129.531 24.0134 129.22 24.0134C128.782 24.0134 128.598 24.1376 128.318 24.4183C126.952 25.785 125.211 26.5299 123.099 26.5299C120.956 26.5299 119.619 25.1017 119.619 24.1991C119.619 23.9519 119.837 23.7338 120.397 23.5784C126.361 21.714 128.846 20.4725 129.778 19.5397C130.307 19.0432 130.524 18.4526 130.524 17.9248C130.524 15.5638 127.107 11.3708 121.856 11.3708C119.682 11.3708 117.476 12.2387 115.83 13.8861C114.184 15.5336 113.158 17.8621 113.158 21.0317C113.158 24.0761 114.121 26.1888 115.798 27.8664C117.476 29.544 119.9 30.3829 122.541 30.3829C125.243 30.3829 127.79 29.4199 129.654 27.5555M125.026 17.9561C125.026 19.1058 124.528 19.448 122.665 20.099C121.173 20.6593 120.024 20.9076 119.682 20.9076C119.06 20.9076 118.782 20.4412 118.782 19.4783C118.782 17.1799 119.434 14.3838 121.856 14.3838C124.093 14.3838 125.026 16.8075 125.026 17.9561M187.218 16.6822C187.218 13.2028 185.417 11.4323 182.591 11.4323C181.254 11.4323 179.825 11.8663 178.397 12.7375C177.899 13.0484 177.742 13.1413 177.621 13.1413C177.123 13.1413 177.464 11.8663 176.564 11.8663H171.097C170.755 11.8663 170.661 11.8663 170.536 11.9915C170.381 12.147 170.257 12.9545 170.257 13.5148C170.257 13.6692 170.288 13.7922 170.381 13.8861C170.63 14.1356 171.097 14.2284 171.469 14.6008C171.748 14.8804 171.873 15.4709 171.873 16.3713V24.6655C171.873 25.7224 171.779 26.4058 171.469 26.7167C171.033 27.1506 170.288 27.4 170.071 27.617C170.009 27.6807 169.977 27.8038 169.977 28.0219C169.977 28.8294 170.071 29.6067 170.193 29.7297C170.288 29.8225 170.475 29.8851 170.816 29.8851H178.644C179.017 29.8851 179.142 29.8225 179.236 29.7297C179.391 29.5742 179.514 28.8294 179.514 28.0219C179.514 27.8038 179.484 27.6808 179.421 27.617C179.173 27.3698 178.458 27.1506 178.023 26.7167C177.712 26.4058 177.556 25.7224 177.556 24.6655V18.5466C177.556 16.0302 178.955 15.254 179.98 15.254C181.037 15.254 181.627 16.0301 181.627 17.6753V26.2827C181.627 28.5811 183.087 30.1021 185.728 30.1021C188.648 30.1021 189.891 27.9906 189.891 27.5555C189.891 27.1831 189.3 26.4371 188.928 26.4371C188.493 26.4371 187.872 26.9963 187.561 26.9963C187.343 26.9963 187.218 26.8408 187.218 26.3442V16.6822ZM138.444 5.15687H132.481C132.108 5.15687 131.952 5.15686 131.86 5.31343C131.735 5.46778 131.641 6.24509 131.641 6.77298C131.641 6.95864 131.674 7.0828 131.735 7.20694C131.952 7.42503 132.792 7.64201 133.164 8.01556C133.474 8.32648 133.631 8.94719 133.631 11.3071V23.7338C133.631 25.8163 133.414 26.4684 133.164 26.7167C132.729 27.1506 131.984 27.4 131.766 27.617C131.705 27.6807 131.674 27.8038 131.674 28.0219C131.674 28.8294 131.766 29.6067 131.891 29.7297C131.984 29.8225 132.108 29.8851 132.512 29.8851H140.31C140.714 29.8851 140.837 29.8225 140.931 29.7297C141.055 29.6067 141.21 28.8294 141.21 28.0219C141.21 27.8038 141.18 27.6808 141.086 27.617C140.869 27.4 140.123 27.1506 139.718 26.7167C139.378 26.4058 139.253 25.7224 139.253 24.6655V23.9519C139.253 23.5482 139.378 23.4229 140.062 22.7396C140.372 22.4611 140.65 22.2441 140.869 22.2441C141.18 22.2441 141.427 22.4611 144.845 29.3572C145.062 29.7923 145.155 29.8851 145.714 29.8851H150.777C151.151 29.8851 151.276 29.8225 151.369 29.7297C151.493 29.6067 151.617 28.8294 151.617 28.0219C151.617 27.8038 151.587 27.6808 151.523 27.617C151.306 27.4 150.002 27.2446 149.723 26.7167C145.219 19.1058 145.094 18.8564 145.094 18.3912C145.094 17.9874 147.082 16 148.728 14.6948C149.785 13.8559 150.468 14.414 150.468 13.4209C150.468 12.2711 150.313 11.8663 150.095 11.8663H142.578C141.925 11.8663 141.864 12.2387 141.864 13.6379C141.864 14.1031 143.168 14.1657 143.168 14.8178C143.168 15.377 139.999 18.4224 139.471 18.4224C139.284 18.4224 139.253 18.2983 139.253 17.7693V6.027C139.253 5.5293 138.911 5.15687 138.444 5.15687" fill="#787878"/>
<path d="M17.3306 0.284668L21.4546 12.8269L34.6573 12.8732L24.0034 20.6711L28.0391 33.242L17.3306 25.5192L6.62213 33.242L10.6579 20.6711L0.00390625 12.8732L13.2066 12.8269L17.3306 0.284668Z" fill="#787878"/>
<path d="M187.233 4.50195C187.756 4.50196 188.257 4.63316 188.736 4.89558C189.216 5.15538 189.593 5.52915 189.866 6.0169C190.141 6.50467 190.279 7.01495 190.279 7.54777C190.279 8.07794 190.144 8.58425 189.874 9.0667C189.606 9.5465 189.231 9.9216 188.748 10.192C188.268 10.4597 187.764 10.5936 187.233 10.5936C186.703 10.5936 186.197 10.4597 185.714 10.192C185.235 9.9216 184.86 9.5465 184.589 9.0667C184.321 8.58425 184.188 8.07794 184.188 7.54777C184.188 7.01495 184.324 6.50467 184.597 6.0169C184.873 5.52915 185.25 5.15538 185.73 4.89558C186.21 4.63316 186.711 4.50196 187.233 4.50195M187.238 5.09838C186.819 5.09838 186.417 5.2031 186.033 5.4125C185.649 5.62192 185.345 5.9228 185.122 6.31513C184.902 6.70746 184.792 7.11833 184.792 7.54777C184.792 7.97456 184.9 8.38147 185.115 8.7685C185.332 9.15552 185.634 9.45772 186.021 9.67509C186.408 9.89246 186.814 10.0011 187.238 10.0011C187.665 10.0011 188.07 9.89246 188.455 9.67509C188.842 9.45772 189.144 9.15552 189.361 8.7685C189.578 8.38147 189.687 7.97456 189.687 7.54777C189.687 7.11833 189.576 6.70746 189.353 6.31513C189.133 5.9228 188.83 5.62192 188.443 5.4125C188.058 5.2031 187.657 5.09838 187.238 5.09838M185.858 9.17805V5.94533H186.514C187.129 5.94533 187.474 5.94802 187.548 5.95339C187.765 5.972 187.934 6.01574 188.053 6.08459C188.175 6.15089 188.276 6.25425 188.355 6.39475C188.437 6.53259 188.478 6.68634 188.478 6.85599C188.478 7.08926 188.402 7.28941 188.248 7.4564C188.097 7.62076 187.883 7.72282 187.608 7.76258C187.706 7.79971 187.781 7.84079 187.834 7.88586C187.887 7.92827 187.96 8.01045 188.053 8.1324C188.077 8.16416 188.156 8.2954 188.292 8.52603L188.673 9.17816H187.862L187.592 8.65327C187.409 8.30071 187.258 8.07937 187.138 7.98924C187.019 7.89646 186.868 7.85006 186.685 7.85006H186.514V9.17816H185.858M186.514 7.34109H186.781C187.16 7.3411 187.394 7.32652 187.484 7.29735C187.577 7.26818 187.65 7.2178 187.703 7.14624C187.756 7.07198 187.783 6.98853 187.783 6.89575C187.783 6.80562 187.756 6.7261 187.703 6.65718C187.653 6.5856 187.58 6.53523 187.484 6.50607C187.389 6.47431 187.154 6.45829 186.781 6.45829H186.514V7.34101" fill="#787878"/>
</g>
<defs>
<clipPath id="clip0_2614_783">
<rect width="191.474" height="34" fill="white" transform="translate(0.00390625)"/>
</clipPath>
</defs>
</svg>
