<svg width="198" height="38" viewBox="0 0 198 38" fill="none" xmlns="http://www.w3.org/2000/svg">
<path d="M189.085 12.6028H189.48C189.678 12.6028 189.894 12.6466 189.894 12.8859C189.894 13.1818 189.675 13.2 189.431 13.2H189.085V12.6028ZM189.085 13.45H189.419L189.921 14.2876H190.242L189.702 13.435C189.983 13.4009 190.196 13.2491 190.196 12.9041C190.196 12.5226 189.974 12.3538 189.522 12.3538H188.797V14.2876H189.085V13.45Z" fill="#787878"/>
<path d="M189.437 11.9232C190.184 11.9232 190.775 12.5215 190.775 13.3163C190.775 14.124 190.184 14.7191 189.437 14.7191C188.681 14.7191 188.089 14.124 188.089 13.3163C188.089 12.5215 188.681 11.9232 189.437 11.9232ZM189.437 14.999C190.337 14.999 191.106 14.2864 191.106 13.3163C191.106 12.3537 190.337 11.6433 189.437 11.6433C188.527 11.6433 187.758 12.3537 187.758 13.3163C187.758 14.2864 188.527 14.999 189.437 14.999Z" fill="#787878"/>
<path d="M146.715 13.085C148.539 13.085 150.019 11.9546 150.019 10.5593C150.019 9.16511 148.539 8.03478 146.715 8.03478C144.89 8.03478 143.41 9.16511 143.41 10.5593C143.41 11.9546 144.89 13.085 146.715 13.085Z" fill="#787878"/>
<path d="M195.019 18.7926C194.24 19.3867 193.286 20.0031 192.721 20.22C191.748 20.6772 190.911 20.4775 190.152 19.5063C189.282 18.3931 187.834 16.4711 186.958 15.439C186.231 14.5822 184.818 14.1303 183.337 15.4583C182.714 16.1142 181.565 17.2649 180.942 17.9785C180.339 18.7317 179.949 18.97 179.52 17.9785C179.131 17.1655 178.771 16.1837 178.294 15.3407C178.002 14.8247 177.904 14.2296 175.802 14.5277C173.27 15.0822 170.193 15.8162 167.293 15.9764C165.98 16.0063 164.742 15.8461 165.794 17.8012C166.299 18.9614 165.909 20.4849 165.279 21.4689C164.658 22.4358 163.232 22.6463 162.551 20.9155C162.019 19.5555 162.268 18.0576 163.128 16.8546C163.414 16.454 163.788 15.9358 164.804 15.5651C166.066 15.2019 166.648 13.891 164.294 13.9925C162.036 13.8322 159.894 14.7841 157.985 17.1655C156.547 18.8706 153.918 20.8354 152.028 21.6399C150.937 22.1837 149.896 22.2638 149.906 20.8845C149.857 19.6057 149.886 16.6698 149.876 15.736C149.906 14.845 149.916 14.7243 148.426 14.6271C147.297 14.5181 145.797 14.5662 144.902 14.6858C144.247 14.7734 143.753 15.1719 143.763 15.6185V17.6217C142.662 19.3674 139.547 21.8674 136.859 21.9871C136.548 21.9871 135.925 22.1837 136.51 21.1933C139.318 16.3247 134.038 13.6356 129.641 15.1976C127.63 15.9166 125.918 17.2841 124.676 19.1174C124.457 19.4273 124.516 19.0993 124.516 19.0993L124.486 15.3311C124.497 15.0427 124.321 14.6858 123.804 14.6356C122.997 14.5085 122.237 14.5469 121.226 14.6452C120.914 14.6271 120.642 14.9038 120.524 15.1613C120.524 15.1613 118.967 18.5341 116.669 20.1206C115.578 20.8546 115.363 20.7349 114.761 20.0416C113.613 18.7125 111.458 16.5127 110.769 15.5982C109.932 14.4871 108.588 14.329 107.538 15.6388C106.875 16.3525 105.038 18.7414 104.792 19.0897C104.247 19.8642 104.072 19.7638 103.643 19.1495C102.728 17.939 101.93 16.8471 100.995 15.6388C100.307 14.657 98.9448 14.0865 97.5687 15.5779C96.9843 16.2927 95.6606 18.0587 95.0377 18.9315C94.433 19.704 94.2194 19.9433 93.4597 18.9315C92.6029 17.7894 92.0185 17.0074 91.2012 15.8974C90.1937 14.5266 88.7675 14.3685 87.5014 15.6185C86.0485 17.0544 84.0955 18.9123 82.8871 20.142C82.2835 20.7349 81.8359 21.0736 81.2322 20.0416C80.6478 19.189 79.4801 17.6901 78.7974 16.9369C78.3882 16.4839 76.6468 16.0747 76.3263 17.7307C76.2088 20.2403 75.2942 21.2713 74.2334 21.6089C72.4898 22.1644 71.9214 20.8589 72.1885 19.6057C72.54 18.048 73.6778 16.7681 75.6244 16.1142C76.5987 15.8568 76.9876 14.6858 75.1575 14.6057C72.0614 14.6858 68.8883 16.4518 63.8744 20.1516C63.0956 20.7456 62.4727 21.0832 61.5764 19.5758C60.8168 18.1869 59.7452 16.282 59.4354 15.7275C58.9578 14.8546 57.7302 14.0501 56.2505 15.36C54.7719 16.6698 53.039 18.157 52.3766 18.9903C52.1533 19.2392 51.6555 19.8642 51.5786 18.7317C51.4621 14.5662 51.4621 5.04486 51.4621 5.04486C51.4717 4.53952 51.5113 4.33973 50.7805 4.35042C49.9621 4.29059 48.7164 4.39101 47.694 4.45939C47.382 4.47969 47.0305 4.64849 46.992 4.97541C46.4183 9.09184 46.3361 18.3963 47.0273 22.049C47.5134 25.6868 50.1662 26.6281 52.4343 23.6815C53.3991 22.4732 53.8488 22.0298 54.1971 21.5597C54.7612 20.7958 55.0337 20.7958 55.5315 21.4689C56.0037 22.1142 56.8649 23.8215 57.4097 24.377C58.1982 25.3877 59.727 26.1516 62.8915 24.3663C63.9033 23.8514 65.821 22.1537 65.9781 21.9956C66.1533 21.8183 66.6201 21.3514 66.5518 21.9272C66.2793 23.8802 68.9663 27.0244 74.1254 24.9625C75.2163 24.4069 76.0143 23.9497 76.462 23.3952C76.6447 23.1676 76.8904 22.7777 77.2024 23.376C79.0902 26.2103 80.3754 26.3503 82.8679 24.0693C84.0762 23.0971 86.4459 21.048 86.6446 20.8749C87.0538 20.517 87.4042 20.2008 87.8722 20.8354C88.9427 22.4219 89.3711 22.9785 90.1895 24.1099C91.4939 25.8749 92.9117 26.1655 94.6414 24.1665C95.4469 23.2371 96.323 22.2638 96.9843 21.3514C97.4052 20.7713 97.8219 20.5576 98.2695 21.2916C99.0078 22.3642 99.9437 23.6334 100.547 24.3663C101.423 25.736 103.04 26.1131 104.344 24.3076C105.182 23.2157 105.939 22.3642 106.524 21.5106C107.119 20.5779 107.401 20.7072 108.044 21.5298C108.667 22.3418 110.117 24.08 110.117 24.08C111.763 26.2328 113.738 25.5479 116.163 24.1484C117.613 23.1858 118.704 22.2638 119.967 20.9337C119.941 25.2691 119.862 33.9282 120.543 37.3214C120.69 37.815 120.873 37.8801 121.323 37.9346C122.451 38.0735 123.23 37.9955 124.223 37.6579C124.694 37.4977 124.817 37.3406 124.808 36.6451C124.477 30.1003 123.911 23.7531 128.02 19.7253C133.882 14.9636 133.044 23.8706 128.76 22.8001C127.515 22.7007 127.884 23.6922 128.798 24.2082C130.902 25.4165 137.145 27.3086 143.464 21.5052C143.695 21.251 143.714 21.3514 143.704 21.5416C143.743 23.9304 144.311 25.8653 149.01 25.517C151.506 25.1655 153.819 24.6847 156.871 21.4337C157.109 21.1933 157.129 21.2916 157.131 21.5149C158.004 28.4133 174.089 27.2424 170.019 17.8204L172.724 17.3835C173.66 19.8642 174.711 22.2841 175.607 24.0095C176.71 26.1356 178.43 25.8749 179.656 24.268C180.571 23.2755 181.903 21.6751 182.519 20.8963C183.084 20.1815 183.648 20.1014 184.058 20.8546C185.187 22.4027 186.022 23.5138 186.705 24.2467C188.165 26.2509 190.191 25.5779 192.877 23.9101C194.591 22.7595 195.993 21.3514 197.201 19.6057C197.96 18.1367 196.479 17.7008 195.019 18.7926Z" fill="#787878"/>
<path d="M16.5216 5.51138V10.7165V23.2089C16.5237 23.3019 16.5162 23.3735 16.497 23.4258C16.4489 23.5594 16.3293 23.5839 16.1135 23.5882H15.9724C0.341117 21.7207 0.891327 9.33508 11.7139 5.63104C12.0633 5.51138 12.4222 5.40027 12.793 5.29985C13.1754 5.19621 13.5686 5.1022 13.9725 5.01886C14.6092 4.88959 15.2727 4.78703 15.9618 4.71331C16.0761 4.70156 16.168 4.69408 16.2417 4.69515C16.387 4.69622 16.4618 4.73147 16.4981 4.83297C16.5034 4.85006 16.5088 4.86822 16.513 4.88959C16.5376 5.01352 16.528 5.2101 16.5216 5.51138ZM43.5385 20.007C40.7522 21.4258 33.5332 23.2186 30.3175 23.4611C29.6583 23.5262 29.576 23.5081 29.5845 23.1342V5.5851C29.5664 4.78275 29.5333 4.76352 30.1444 4.7881C30.7117 4.81053 31.1134 4.86716 31.6668 4.94408C34.2245 5.30305 37.1529 6.18339 38.7971 6.73039C39.5129 6.96757 39.8366 7.07014 40.6069 7.3586C40.8729 7.46543 41.6048 7.72291 41.9167 7.82547C42.4114 7.97504 42.6037 8.24534 42.4499 7.23146C42.2287 6.22933 41.577 5.48254 40.2031 4.4366C32.5076 -1.42448 15.8688 -1.08901 8.20966 3.16845C-4.80095 10.225 -0.548836 21.7239 8.53872 25.4952C16.1626 28.7442 31.2245 31.0219 42.4926 21.7795C42.8388 21.4846 43.5011 20.9226 44.0054 20.3147C44.6475 19.5316 44.0599 19.7186 43.5385 20.007" fill="#787878"/>
</svg>
