<svg width="23" height="18" viewBox="0 0 23 18" fill="none" xmlns="http://www.w3.org/2000/svg">
<path d="M22.1538 2.07692C21.3231 2.49231 20.4923 2.63077 19.5231 2.76923C20.4923 2.21538 21.1846 1.38462 21.4615 0.276923C20.6308 0.830769 19.6615 1.10769 18.5538 1.38462C17.7231 0.553846 16.4769 0 15.2308 0C12.3231 0 10.1077 2.76923 10.8 5.53846C7.06154 5.4 3.73846 3.6 1.38462 0.83077C0.138462 2.90769 0.830769 5.53846 2.76923 6.92308C2.07692 6.92308 1.38462 6.64615 0.692308 6.36923C0.692308 8.44615 2.21539 10.3846 4.29231 10.9385C3.6 11.0769 2.90769 11.2154 2.21539 11.0769C2.76923 12.8769 4.43077 14.2615 6.50769 14.2615C4.84615 15.5077 2.35385 16.2 0 15.9231C2.07692 17.1692 4.43077 18 6.92308 18C15.3692 18 20.0769 10.9385 19.8 4.43077C20.7692 3.87692 21.6 3.04615 22.1538 2.07692Z" fill="#EF4824"/>
</svg>
